<svg width="81" height="70" viewBox="0 0 81 70" fill="none" xmlns="http://www.w3.org/2000/svg">
<path d="M46.0999 63.8334C45.6019 63.8351 45.1099 63.7252 44.6599 63.5118C44.21 63.2984 43.8136 62.9868 43.4999 62.6001L27.3999 42.6001C26.9096 42.0037 26.6416 41.2555 26.6416 40.4834C26.6416 39.7114 26.9096 38.9632 27.3999 38.3668L44.0666 18.3668C44.6324 17.686 45.4454 17.258 46.3268 17.1767C47.2082 17.0954 48.0858 17.3676 48.7666 17.9334C49.4473 18.4992 49.8754 19.3123 49.9566 20.1937C50.0379 21.0751 49.7657 21.9527 49.1999 22.6334L34.2999 40.5001L48.6999 58.3668C49.1075 58.8561 49.3664 59.4519 49.446 60.0837C49.5256 60.7155 49.4226 61.3569 49.149 61.932C48.8755 62.5071 48.443 62.9918 47.9026 63.3288C47.3623 63.6658 46.7367 63.8409 46.0999 63.8334Z" fill="black"/>
</svg>
