<svg width="61" height="60" viewBox="0 0 61 60" fill="none" xmlns="http://www.w3.org/2000/svg">
<path d="M32.9558 6.90988C32.0775 6.22674 31.6383 5.88518 31.1534 5.75388C30.7255 5.63803 30.2745 5.63803 29.8466 5.75388C29.3617 5.88518 28.9226 6.22674 28.0442 6.90987L11.0885 20.0977C9.95505 20.9792 9.38834 21.42 8.98007 21.972C8.61841 22.461 8.349 23.0118 8.18507 23.5975C8 24.2587 8 24.9766 8 26.4125V44.4998C8 47.3001 8 48.7002 8.54497 49.7698C9.02433 50.7106 9.78924 51.4755 10.73 51.9549C11.7996 52.4998 13.1997 52.4998 16 52.4998H21C21.7001 52.4998 22.0501 52.4998 22.3175 52.3636C22.5527 52.2438 22.7439 52.0525 22.8638 51.8173C23 51.5499 23 51.1999 23 50.4998V33.9998C23 32.5997 23 31.8996 23.2725 31.3649C23.5122 30.8945 23.8946 30.512 24.365 30.2723C24.8998 29.9998 25.5999 29.9998 27 29.9998H34C35.4001 29.9998 36.1002 29.9998 36.635 30.2723C37.1054 30.512 37.4878 30.8945 37.7275 31.3649C38 31.8996 38 32.5997 38 33.9998V50.4998C38 51.1999 38 51.5499 38.1362 51.8173C38.2561 52.0525 38.4473 52.2438 38.6825 52.3636C38.9499 52.4998 39.2999 52.4998 40 52.4998H45C47.8003 52.4998 49.2004 52.4998 50.27 51.9549C51.2108 51.4755 51.9757 50.7106 52.455 49.7698C53 48.7002 53 47.3001 53 44.4998V26.4125C53 24.9766 53 24.2587 52.8149 23.5975C52.651 23.0118 52.3816 22.461 52.0199 21.972C51.6117 21.42 51.0449 20.9792 49.9115 20.0977L32.9558 6.90988Z" stroke="black" stroke-width="2" stroke-linecap="round" stroke-linejoin="round"/>
</svg>
