<svg width="271" height="70" viewBox="0 0 271 70" fill="none" xmlns="http://www.w3.org/2000/svg">
<rect x="1.5" y="1" width="268" height="38" rx="19" fill="white" stroke="black" stroke-width="2"/>
<rect x="1.5" y="1" width="228" height="38" rx="19" fill="#FF9F29" stroke="black" stroke-width="2"/>
<path d="M7.868 64.24C6.492 64.24 5.324 63.88 4.364 63.16C3.42 62.424 2.7 61.408 2.204 60.112C1.708 58.8 1.46 57.296 1.46 55.6C1.46 53.888 1.708 52.384 2.204 51.088C2.7 49.792 3.42 48.784 4.364 48.064C5.324 47.328 6.492 46.96 7.868 46.96C9.244 46.96 10.404 47.328 11.348 48.064C12.308 48.784 13.036 49.792 13.532 51.088C14.028 52.384 14.276 53.888 14.276 55.6C14.276 57.296 14.028 58.8 13.532 60.112C13.036 61.408 12.308 62.424 11.348 63.16C10.404 63.88 9.244 64.24 7.868 64.24ZM7.868 61.36C8.54 61.36 9.116 61.152 9.596 60.736C10.092 60.304 10.476 59.664 10.748 58.816C11.02 57.952 11.156 56.88 11.156 55.6C11.156 54.304 11.02 53.232 10.748 52.384C10.476 51.536 10.092 50.904 9.596 50.488C9.116 50.056 8.54 49.84 7.868 49.84C7.212 49.84 6.636 50.056 6.14 50.488C5.644 50.904 5.26 51.536 4.988 52.384C4.716 53.232 4.58 54.304 4.58 55.6C4.58 56.88 4.716 57.952 4.988 58.816C5.26 59.664 5.644 60.304 6.14 60.736C6.636 61.152 7.212 61.36 7.868 61.36ZM29.7668 64C29.5054 64 29.2954 63.8927 29.1368 63.678L25.9028 59.422L27.1768 58.12L30.5228 62.544C30.6534 62.7213 30.7188 62.9127 30.7188 63.118C30.7188 63.3793 30.6208 63.594 30.4248 63.762C30.2288 63.9207 30.0094 64 29.7668 64ZM29.9348 54.13C30.1588 54.13 30.3408 54.2233 30.4808 54.41C30.6301 54.5873 30.7048 54.7693 30.7048 54.956C30.7048 55.152 30.6208 55.334 30.4528 55.502L24.5868 61.116L24.5168 59.114L29.2488 54.452C29.4634 54.2373 29.6921 54.13 29.9348 54.13ZM23.8868 64C23.6254 64 23.4154 63.9207 23.2568 63.762C23.0981 63.594 23.0188 63.3887 23.0188 63.146V55.054C23.0188 54.8113 23.1028 54.6107 23.2708 54.452C23.4388 54.284 23.6534 54.2 23.9148 54.2C24.1761 54.2 24.3814 54.284 24.5308 54.452C24.6894 54.6107 24.7688 54.8113 24.7688 55.054V63.146C24.7688 63.3887 24.6894 63.594 24.5308 63.762C24.3721 63.9207 24.1574 64 23.8868 64ZM35.0838 56.37C35.6158 56.37 36.0778 56.426 36.4698 56.538C36.8711 56.65 37.1791 56.8087 37.3938 57.014C37.6178 57.21 37.7298 57.448 37.7298 57.728C37.7298 57.9147 37.6738 58.092 37.5618 58.26C37.4498 58.4187 37.2865 58.498 37.0718 58.498C36.9225 58.498 36.7965 58.4793 36.6938 58.442C36.6005 58.3953 36.5165 58.3393 36.4418 58.274C36.3671 58.2087 36.2785 58.148 36.1758 58.092C36.0825 58.036 35.9378 57.994 35.7418 57.966C35.5551 57.9287 35.4151 57.91 35.3218 57.91C34.8458 57.91 34.4398 58.0127 34.1038 58.218C33.7771 58.4233 33.5251 58.7033 33.3478 59.058C33.1705 59.4033 33.0818 59.8047 33.0818 60.262C33.0818 60.71 33.1705 61.1113 33.3478 61.466C33.5345 61.8113 33.7865 62.0867 34.1038 62.292C34.4305 62.4973 34.8038 62.6 35.2238 62.6C35.4571 62.6 35.6578 62.586 35.8258 62.558C35.9938 62.53 36.1338 62.488 36.2458 62.432C36.3765 62.3573 36.4931 62.278 36.5958 62.194C36.6985 62.11 36.8525 62.068 37.0578 62.068C37.3005 62.068 37.4871 62.1473 37.6178 62.306C37.7485 62.4553 37.8138 62.642 37.8138 62.866C37.8138 63.0993 37.6831 63.314 37.4218 63.51C37.1605 63.6967 36.8151 63.8507 36.3858 63.972C35.9658 64.084 35.5085 64.14 35.0138 64.14C34.2765 64.14 33.6371 63.972 33.0958 63.636C32.5545 63.2907 32.1345 62.824 31.8358 62.236C31.5465 61.648 31.4018 60.99 31.4018 60.262C31.4018 59.4967 31.5558 58.8247 31.8638 58.246C32.1811 57.658 32.6151 57.2007 33.1658 56.874C33.7258 56.538 34.3651 56.37 35.0838 56.37ZM45.1572 56.37C45.3999 56.37 45.6006 56.4493 45.7592 56.608C45.9179 56.7667 45.9972 56.972 45.9972 57.224V63.146C45.9972 63.3887 45.9179 63.594 45.7592 63.762C45.6006 63.9207 45.3999 64 45.1572 64C44.9146 64 44.7139 63.9207 44.5552 63.762C44.3966 63.594 44.3172 63.3887 44.3172 63.146V62.46L44.6252 62.586C44.6252 62.7073 44.5599 62.8567 44.4292 63.034C44.2986 63.202 44.1212 63.37 43.8972 63.538C43.6732 63.706 43.4072 63.8507 43.0992 63.972C42.8006 64.084 42.4739 64.14 42.1192 64.14C41.4752 64.14 40.8919 63.9767 40.3692 63.65C39.8466 63.314 39.4312 62.8567 39.1232 62.278C38.8246 61.69 38.6752 61.018 38.6752 60.262C38.6752 59.4967 38.8246 58.8247 39.1232 58.246C39.4312 57.658 39.8419 57.2007 40.3552 56.874C40.8686 56.538 41.4379 56.37 42.0632 56.37C42.4646 56.37 42.8332 56.4307 43.1692 56.552C43.5052 56.6733 43.7946 56.8273 44.0372 57.014C44.2892 57.2007 44.4806 57.392 44.6112 57.588C44.7512 57.7747 44.8212 57.9333 44.8212 58.064L44.3172 58.246V57.224C44.3172 56.9813 44.3966 56.7807 44.5552 56.622C44.7139 56.454 44.9146 56.37 45.1572 56.37ZM42.3292 62.6C42.7399 62.6 43.0992 62.4973 43.4072 62.292C43.7152 62.0867 43.9532 61.8067 44.1212 61.452C44.2986 61.0973 44.3872 60.7007 44.3872 60.262C44.3872 59.814 44.2986 59.4127 44.1212 59.058C43.9532 58.7033 43.7152 58.4233 43.4072 58.218C43.0992 58.0127 42.7399 57.91 42.3292 57.91C41.9279 57.91 41.5732 58.0127 41.2652 58.218C40.9572 58.4233 40.7146 58.7033 40.5372 59.058C40.3692 59.4127 40.2852 59.814 40.2852 60.262C40.2852 60.7007 40.3692 61.0973 40.5372 61.452C40.7146 61.8067 40.9572 62.0867 41.2652 62.292C41.5732 62.4973 41.9279 62.6 42.3292 62.6ZM49.6363 63.146C49.6363 63.3887 49.5523 63.594 49.3843 63.762C49.2256 63.9207 49.0249 64 48.7823 64C48.5489 64 48.3529 63.9207 48.1943 63.762C48.0356 63.594 47.9563 63.3887 47.9563 63.146V54.494C47.9563 54.2513 48.0356 54.0507 48.1943 53.892C48.3623 53.724 48.5676 53.64 48.8103 53.64C49.0529 53.64 49.2489 53.724 49.3983 53.892C49.5569 54.0507 49.6363 54.2513 49.6363 54.494V63.146Z" fill="white"/>
<path d="M4.364 63.16L3.13427 64.7373L3.14903 64.7488L3.164 64.76L4.364 63.16ZM2.204 60.112L0.333208 60.8193L0.336123 60.8269L2.204 60.112ZM2.204 51.088L0.336123 50.3731L0.336123 50.3731L2.204 51.088ZM4.364 48.064L5.5769 49.6542L5.58086 49.6512L4.364 48.064ZM11.348 48.064L10.1183 49.6413L10.133 49.6528L10.148 49.664L11.348 48.064ZM13.532 51.088L15.3999 50.3731L15.3999 50.3731L13.532 51.088ZM13.532 60.112L15.3999 60.8269L15.4028 60.8192L13.532 60.112ZM11.348 63.16L12.5609 64.7502L12.5649 64.7472L11.348 63.16ZM9.596 60.736L10.9059 62.2474L10.9096 62.2442L9.596 60.736ZM10.748 58.816L12.6525 59.4269L12.6557 59.4166L10.748 58.816ZM10.748 52.384L8.84357 52.9949L8.84357 52.9949L10.748 52.384ZM9.596 50.488L8.25807 51.9746L8.28402 51.9979L8.31078 52.0204L9.596 50.488ZM6.14 50.488L7.42523 52.0204L7.43951 52.0084L7.45356 51.9962L6.14 50.488ZM4.988 52.384L3.08357 51.7731L3.08357 51.7731L4.988 52.384ZM4.988 58.816L3.08027 59.4166L3.08357 59.4269L4.988 58.816ZM6.14 60.736L4.82644 62.2442L4.84049 62.2564L4.85478 62.2684L6.14 60.736ZM7.868 62.24C6.85855 62.24 6.12836 61.9833 5.564 61.56L3.164 64.76C4.51964 65.7767 6.12545 66.24 7.868 66.24V62.24ZM5.59373 61.5827C4.98019 61.1044 4.45873 60.408 4.07188 59.3971L0.336123 60.8269C0.941265 62.408 1.85981 63.7436 3.13427 64.7373L5.59373 61.5827ZM4.07478 59.4048C3.68001 58.3605 3.46 57.1035 3.46 55.6H-0.54C-0.54 57.4885 -0.264014 59.2395 0.333223 60.8192L4.07478 59.4048ZM3.46 55.6C3.46 54.0772 3.68098 52.8242 4.07188 51.8029L0.336123 50.3731C-0.26498 51.9438 -0.54 53.6988 -0.54 55.6H3.46ZM4.07188 51.8029C4.45785 50.7943 4.97513 50.1132 5.5769 49.6542L3.1511 46.4738C1.86487 47.4548 0.942147 48.7897 0.336123 50.3731L4.07188 51.8029ZM5.58086 49.6512C6.1445 49.2191 6.86857 48.96 7.868 48.96V44.96C6.11543 44.96 4.5035 45.4369 3.14714 46.4768L5.58086 49.6512ZM7.868 48.96C8.8682 48.96 9.57696 49.2192 10.1183 49.6413L12.5777 46.4867C11.231 45.4368 9.6198 44.96 7.868 44.96V48.96ZM10.148 49.664C10.7616 50.1242 11.2814 50.8028 11.6641 51.8029L15.3999 50.3731C14.7906 48.7812 13.8544 47.4438 12.548 46.464L10.148 49.664ZM11.6641 51.8029C12.055 52.8242 12.276 54.0772 12.276 55.6H16.276C16.276 53.6988 16.001 51.9438 15.3999 50.3731L11.6641 51.8029ZM12.276 55.6C12.276 57.1035 12.056 58.3605 11.6612 59.4048L15.4028 60.8192C16 59.2395 16.276 57.4885 16.276 55.6H12.276ZM11.6641 59.3971C11.2805 60.3996 10.7565 61.0933 10.1311 61.5728L12.5649 64.7472C13.8595 63.7547 14.7915 62.4164 15.3999 60.8269L11.6641 59.3971ZM10.1351 61.5698C9.5932 61.9831 8.87831 62.24 7.868 62.24V66.24C9.60969 66.24 11.2148 65.7769 12.5609 64.7502L10.1351 61.5698ZM7.868 63.36C8.99086 63.36 10.04 62.9978 10.9059 62.2474L8.28614 59.2246C8.19204 59.3062 8.08914 59.36 7.868 59.36V63.36ZM10.9096 62.2442C11.7615 61.5021 12.3071 60.5035 12.6524 59.4269L8.84357 58.2051C8.64492 58.8245 8.42245 59.1059 8.28244 59.2278L10.9096 62.2442ZM12.6557 59.4166C13.0084 58.2964 13.156 57.0067 13.156 55.6H9.156C9.156 56.7533 9.03164 57.6076 8.8403 58.2154L12.6557 59.4166ZM13.156 55.6C13.156 54.1822 13.0094 52.8862 12.6524 51.7731L8.84357 52.9949C9.03055 53.5778 9.156 54.4258 9.156 55.6H13.156ZM12.6524 51.7731C12.3069 50.6958 11.7559 49.6892 10.8812 48.9556L8.31078 52.0204C8.42815 52.1188 8.64512 52.3762 8.84357 52.9949L12.6524 51.7731ZM10.9339 49.0014C10.0706 48.2244 9.01205 47.84 7.868 47.84V51.84C8.06795 51.84 8.16137 51.8876 8.25807 51.9746L10.9339 49.0014ZM7.868 47.84C6.72771 47.84 5.68549 48.2316 4.82644 48.9798L7.45356 51.9962C7.58651 51.8804 7.69629 51.84 7.868 51.84V47.84ZM4.85478 48.9556C3.98015 49.6892 3.42912 50.6958 3.08357 51.7731L6.89243 52.9949C7.09088 52.3762 7.30785 52.1188 7.42523 52.0204L4.85478 48.9556ZM3.08357 51.7731C2.72655 52.8862 2.58 54.1822 2.58 55.6H6.58C6.58 54.4258 6.70545 53.5778 6.89243 52.9949L3.08357 51.7731ZM2.58 55.6C2.58 57.0067 2.72764 58.2964 3.0803 59.4166L6.8957 58.2154C6.70436 57.6076 6.58 56.7533 6.58 55.6H2.58ZM3.08357 59.4269C3.42892 60.5035 3.97445 61.5021 4.82644 62.2442L7.45356 59.2278C7.31355 59.1059 7.09108 58.8245 6.89243 58.2051L3.08357 59.4269ZM4.85478 62.2684C5.71615 62.9908 6.74882 63.36 7.868 63.36V59.36C7.67518 59.36 7.55585 59.3132 7.42523 59.2036L4.85478 62.2684ZM29.1368 63.678L30.7451 62.4892L30.7372 62.4785L30.7292 62.468L29.1368 63.678ZM25.9028 59.422L24.4732 58.0232L23.2657 59.2573L24.3103 60.632L25.9028 59.422ZM27.1768 58.12L28.7719 56.9135L27.3712 55.0616L25.7472 56.7212L27.1768 58.12ZM30.5228 62.544L32.1329 61.3576L32.1254 61.3475L32.1179 61.3375L30.5228 62.544ZM30.4248 63.762L31.6831 65.3165L31.705 65.2988L31.7263 65.2805L30.4248 63.762ZM30.4808 54.41L28.8808 55.61L28.9146 55.6551L28.9509 55.6983L30.4808 54.41ZM30.4528 55.502L31.8356 56.9469L31.8514 56.9317L31.867 56.9162L30.4528 55.502ZM24.5868 61.116L22.588 61.1859L22.744 65.6479L25.9696 62.5609L24.5868 61.116ZM24.5168 59.114L23.1131 57.6893L22.4873 58.3059L22.518 59.1839L24.5168 59.114ZM29.2488 54.452L30.6524 55.8767L30.6577 55.8715L30.663 55.8662L29.2488 54.452ZM23.2568 63.762L21.8027 65.1352L21.8223 65.156L21.8425 65.1762L23.2568 63.762ZM23.2708 54.452L24.644 55.906L24.6648 55.8864L24.685 55.8662L23.2708 54.452ZM24.5308 54.452L23.0359 55.7807L23.075 55.8247L23.1165 55.8662L24.5308 54.452ZM24.5308 63.762L25.945 65.1762L25.9652 65.156L25.9848 65.1352L24.5308 63.762ZM29.7668 62C29.9178 62 30.1173 62.0333 30.3235 62.1386C30.5282 62.2433 30.665 62.3809 30.7451 62.4892L27.5284 64.8668C28.0546 65.5787 28.8551 66 29.7668 66V62ZM30.7292 62.468L27.4952 58.212L24.3103 60.632L27.5443 64.888L30.7292 62.468ZM27.3323 60.8208L28.6063 59.5188L25.7472 56.7212L24.4732 58.0232L27.3323 60.8208ZM25.5816 59.3265L28.9276 63.7505L32.1179 61.3375L28.7719 56.9135L25.5816 59.3265ZM28.9126 63.7304C28.8675 63.6692 28.8161 63.581 28.7771 63.4668C28.7376 63.3511 28.7188 63.2317 28.7188 63.118H32.7188C32.7188 62.4539 32.4972 61.8521 32.1329 61.3576L28.9126 63.7304ZM28.7188 63.118C28.7188 62.9931 28.7436 62.8246 28.8259 62.6444C28.9084 62.4636 29.0216 62.3305 29.1232 62.2435L31.7263 65.2805C32.3719 64.7272 32.7188 63.9549 32.7188 63.118H28.7188ZM29.1664 62.2075C29.2275 62.158 29.3167 62.1018 29.433 62.0597C29.5502 62.0174 29.6656 62 29.7668 62V66C30.4866 66 31.1462 65.7512 31.6831 65.3165L29.1664 62.2075ZM29.9348 56.13C29.7601 56.13 29.5442 56.0912 29.3266 55.9796C29.1117 55.8694 28.9672 55.7252 28.8808 55.61L32.0808 53.21C31.5815 52.5443 30.8184 52.13 29.9348 52.13V56.13ZM28.9509 55.6983C28.8725 55.6051 28.7048 55.3465 28.7048 54.956H32.7048C32.7048 54.1922 32.3877 53.5696 32.0106 53.1217L28.9509 55.6983ZM28.7048 54.956C28.7048 54.7579 28.7494 54.567 28.8258 54.4014C28.8991 54.2425 28.9859 54.1404 29.0385 54.0878L31.867 56.9162C32.3251 56.458 32.7048 55.7915 32.7048 54.956H28.7048ZM29.0699 54.0571L23.2039 59.6711L25.9696 62.5609L31.8356 56.9469L29.0699 54.0571ZM26.5855 61.0461L26.5155 59.0441L22.518 59.1839L22.588 61.1859L26.5855 61.0461ZM25.9204 60.5387L30.6524 55.8767L27.8451 53.0273L23.1131 57.6893L25.9204 60.5387ZM30.663 55.8662C30.6386 55.8905 30.5639 55.9586 30.4311 56.021C30.2907 56.0869 30.1193 56.13 29.9348 56.13V52.13C29.0359 52.13 28.3248 52.5475 27.8345 53.0378L30.663 55.8662ZM23.8868 62C23.9586 62 24.0854 62.0111 24.2401 62.0696C24.4005 62.1302 24.5495 62.2263 24.671 62.3478L21.8425 65.1762C22.4381 65.7718 23.1893 66 23.8868 66V62ZM24.7108 62.3888C24.8007 62.4839 24.8853 62.6098 24.9438 62.7612C25.0017 62.9109 25.0188 63.0461 25.0188 63.146H21.0188C21.0188 63.8711 21.2745 64.576 21.8027 65.1352L24.7108 62.3888ZM25.0188 63.146V55.054H21.0188V63.146H25.0188ZM25.0188 55.054C25.0188 55.1672 24.9982 55.3227 24.9266 55.4938C24.8541 55.667 24.7502 55.8057 24.644 55.906L21.8975 52.998C21.3075 53.5552 21.0188 54.2921 21.0188 55.054H25.0188ZM24.685 55.8662C24.58 55.9712 24.4441 56.0638 24.2865 56.1255C24.1327 56.1857 24.0004 56.2 23.9148 56.2V52.2C23.1812 52.2 22.4389 52.4554 21.8565 53.0378L24.685 55.8662ZM23.9148 56.2C23.8312 56.2 23.6839 56.1863 23.5075 56.1141C23.3238 56.039 23.1613 55.9217 23.0359 55.7807L26.0256 53.1233C25.4336 52.4573 24.645 52.2 23.9148 52.2V56.2ZM23.1165 55.8662C23.0103 55.76 22.9143 55.6211 22.8493 55.4568C22.7856 55.2957 22.7688 55.1532 22.7688 55.054H26.7688C26.7688 54.3286 26.5111 53.604 25.945 53.0378L23.1165 55.8662ZM22.7688 55.054V63.146H26.7688V55.054H22.7688ZM22.7688 63.146C22.7688 63.0461 22.7858 62.9109 22.8437 62.7612C22.9022 62.6098 22.9868 62.4839 23.0767 62.3888L25.9848 65.1352C26.513 64.576 26.7688 63.8711 26.7688 63.146H22.7688ZM23.1165 62.3478C23.2455 62.2188 23.3995 62.1229 23.5574 62.0645C23.7085 62.0087 23.8277 62 23.8868 62V66C24.571 66 25.3359 65.7852 25.945 65.1762L23.1165 62.3478ZM36.4698 56.538L35.9203 58.4611L35.9322 58.4644L36.4698 56.538ZM37.3938 57.014L36.0114 58.4593L36.0434 58.4899L36.0768 58.5192L37.3938 57.014ZM37.5618 58.26L39.1957 59.4134L39.2111 59.3916L39.2259 59.3694L37.5618 58.26ZM36.6938 58.442L35.7994 60.2309L35.9022 60.2823L36.0103 60.3216L36.6938 58.442ZM36.4418 58.274L35.1248 59.7792L35.1248 59.7792L36.4418 58.274ZM36.1758 58.092L35.1468 59.807L35.182 59.8281L35.2181 59.8478L36.1758 58.092ZM35.7418 57.966L35.3496 59.9272L35.404 59.938L35.459 59.9459L35.7418 57.966ZM34.1038 58.218L33.0609 56.5114L33.0501 56.518L33.0395 56.5247L34.1038 58.218ZM33.3478 59.058L35.1269 59.9716L35.1318 59.962L35.1367 59.9524L33.3478 59.058ZM33.3478 61.466L31.5589 62.3604L31.5732 62.389L31.5884 62.417L33.3478 61.466ZM34.1038 62.292L33.0173 63.9711L33.0283 63.9783L33.0395 63.9853L34.1038 62.292ZM35.8258 62.558L35.497 60.5852L35.497 60.5852L35.8258 62.558ZM36.2458 62.432L37.1402 64.2209L37.1899 64.196L37.2381 64.1685L36.2458 62.432ZM36.5958 62.194L37.8623 63.7419L36.5958 62.194ZM37.6178 62.306L36.0739 63.5774L36.0929 63.6005L36.1126 63.623L37.6178 62.306ZM37.4218 63.51L38.5843 65.1375L38.6032 65.124L38.6218 65.11L37.4218 63.51ZM36.3858 63.972L36.9011 65.9045L36.9154 65.9007L36.9297 65.8966L36.3858 63.972ZM33.0958 63.636L32.0202 65.3221L32.0306 65.3288L32.0411 65.3353L33.0958 63.636ZM31.8358 62.236L30.0413 63.119L30.0469 63.1304L30.0526 63.1417L31.8358 62.236ZM31.8638 58.246L30.1037 57.2961L30.0983 57.3063L31.8638 58.246ZM33.1658 56.874L34.1862 58.5941L34.1948 58.589L33.1658 56.874ZM35.0838 58.37C35.4831 58.37 35.7518 58.4129 35.9204 58.461L37.0192 54.615C36.4038 54.4391 35.7484 54.37 35.0838 54.37V58.37ZM35.9322 58.4644C36.0274 58.491 36.074 58.5128 36.0859 58.5189C36.0969 58.5246 36.0636 58.5092 36.0114 58.4593L38.7762 55.5687C38.2475 55.0629 37.6052 54.7784 37.0074 54.6116L35.9322 58.4644ZM36.0768 58.5192C36.0086 58.4594 35.9121 58.3524 35.8362 58.1911C35.7588 58.0267 35.7298 57.863 35.7298 57.728H39.7298C39.7298 56.8313 39.3378 56.0575 38.7108 55.5088L36.0768 58.5192ZM35.7298 57.728C35.7298 57.6178 35.7469 57.5056 35.7806 57.3987C35.814 57.2931 35.8581 57.21 35.8977 57.1506L39.2259 59.3694C39.5382 58.9009 39.7298 58.342 39.7298 57.728H35.7298ZM35.9279 57.1066C36.0527 56.9298 36.2382 56.7576 36.4815 56.6395C36.7174 56.5249 36.9311 56.498 37.0718 56.498V60.498C37.8565 60.498 38.6652 60.1649 39.1957 59.4134L35.9279 57.1066ZM37.0718 56.498C37.0759 56.498 37.1968 56.4968 37.3773 56.5624L36.0103 60.3216C36.3961 60.4619 36.769 60.498 37.0718 60.498V56.498ZM37.5882 56.6531C37.6394 56.6787 37.6988 56.7163 37.7588 56.7688L35.1248 59.7792C35.3341 59.9623 35.5615 60.1119 35.7994 60.2309L37.5882 56.6531ZM37.7588 56.7688C37.5564 56.5918 37.3426 56.4503 37.1335 56.3362L35.2181 59.8478C35.2143 59.8457 35.1778 59.8256 35.1248 59.7792L37.7588 56.7688ZM37.2048 56.377C36.7661 56.1138 36.3039 56.026 36.0246 55.9861L35.459 59.9459C35.4911 59.9505 35.4803 59.951 35.4397 59.9392C35.4049 59.9291 35.292 59.8941 35.1468 59.807L37.2048 56.377ZM36.134 56.0048C35.9224 55.9625 35.622 55.91 35.3218 55.91V59.91C35.3004 59.91 35.283 59.9095 35.2702 59.9089C35.2573 59.9083 35.2474 59.9076 35.2411 59.9071C35.2289 59.9062 35.2255 59.9055 35.2325 59.9065C35.2391 59.9073 35.2522 59.9092 35.2726 59.9127C35.2929 59.9162 35.3184 59.9209 35.3496 59.9272L36.134 56.0048ZM35.3218 55.91C34.5549 55.91 33.7708 56.0776 33.0609 56.5114L35.1467 59.9246C35.1327 59.9331 35.1301 59.9312 35.1506 59.926C35.1732 59.9202 35.2271 59.91 35.3218 59.91V55.91ZM33.0395 56.5247C32.3938 56.9306 31.8953 57.4908 31.5589 58.1636L35.1367 59.9524C35.1432 59.9392 35.1484 59.931 35.1514 59.9266C35.1543 59.9222 35.156 59.9203 35.1564 59.9199C35.1567 59.9195 35.1571 59.9192 35.158 59.9184C35.159 59.9176 35.162 59.9151 35.1681 59.9113L33.0395 56.5247ZM31.5687 58.1444C31.2224 58.8186 31.0818 59.5433 31.0818 60.262H35.0818C35.0818 60.066 35.1185 59.988 35.1269 59.9716L31.5687 58.1444ZM31.0818 60.262C31.0818 60.9799 31.2257 61.6939 31.5589 62.3604L35.1367 60.5716C35.1153 60.5288 35.0818 60.4401 35.0818 60.262H31.0818ZM31.5884 62.417C31.9283 63.0459 32.407 63.5763 33.0173 63.9711L35.1903 60.6129C35.1659 60.5971 35.1406 60.5768 35.1072 60.515L31.5884 62.417ZM33.0395 63.9853C33.713 64.4087 34.4618 64.6 35.2238 64.6V60.6C35.2004 60.6 35.1842 60.5986 35.1742 60.5973C35.1644 60.596 35.1597 60.5948 35.1591 60.5946C35.1586 60.5944 35.1602 60.5949 35.163 60.5961C35.1659 60.5974 35.1677 60.5985 35.1681 60.5987L33.0395 63.9853ZM35.2238 64.6C35.53 64.6 35.8465 64.5821 36.1546 64.5308L35.497 60.5852C35.4691 60.5899 35.3842 60.6 35.2238 60.6V64.6ZM36.1546 64.5308C36.4536 64.481 36.7988 64.3916 37.1402 64.2209L35.3514 60.6431C35.4134 60.6121 35.4598 60.5965 35.4821 60.5898C35.5047 60.5831 35.5111 60.5829 35.497 60.5852L36.1546 64.5308ZM37.2381 64.1685C37.4526 64.0459 37.6631 63.9049 37.8623 63.7419L35.3293 60.6461C35.3232 60.6511 35.3003 60.6688 35.2535 60.6955L37.2381 64.1685ZM37.8623 63.7419C37.4579 64.0728 37.0742 64.068 37.0578 64.068V60.068C36.6308 60.068 35.939 60.1472 35.3293 60.6461L37.8623 63.7419ZM37.0578 64.068C36.9621 64.068 36.7952 64.0522 36.5975 63.9682C36.3908 63.8803 36.2102 63.7428 36.0739 63.5774L39.1617 61.0346C38.5809 60.3294 37.7782 60.068 37.0578 60.068V64.068ZM36.1126 63.623C36.0103 63.506 35.9291 63.3674 35.8771 63.2187C35.8263 63.0735 35.8138 62.9495 35.8138 62.866H39.8138C39.8138 62.2243 39.614 61.5502 39.123 60.989L36.1126 63.623ZM35.8138 62.866C35.8138 62.5876 35.8973 62.343 36.0074 62.1621C36.1075 61.9977 36.207 61.9211 36.2218 61.91L38.6218 65.11C39.1722 64.6972 39.8138 63.9558 39.8138 62.866H35.8138ZM36.2593 61.8825C36.2429 61.8943 36.1293 61.9661 35.8419 62.0474L36.9297 65.8966C37.5009 65.7352 38.078 65.4991 38.5843 65.1375L36.2593 61.8825ZM35.8705 62.0395C35.6399 62.101 35.358 62.14 35.0138 62.14V66.14C35.659 66.14 36.2917 66.067 36.9011 65.9045L35.8705 62.0395ZM35.0138 62.14C34.5895 62.14 34.328 62.0469 34.1505 61.9367L32.0411 65.3353C32.9463 65.8971 33.9635 66.14 35.0138 66.14V62.14ZM34.1714 61.9499C33.9399 61.8022 33.7604 61.6086 33.619 61.3303L30.0526 63.1417C30.5086 64.0394 31.169 64.7792 32.0202 65.3221L34.1714 61.9499ZM33.6303 61.353C33.4906 61.069 33.4018 60.7182 33.4018 60.262H29.4018C29.4018 61.2618 29.6024 62.227 30.0413 63.119L33.6303 61.353ZM33.4018 60.262C33.4018 59.7693 33.4992 59.4301 33.6293 59.1857L30.0983 57.3063C29.6124 58.2192 29.4018 59.224 29.4018 60.262H33.4018ZM33.6238 59.1959C33.7768 58.9124 33.9612 58.7276 34.1862 58.5941L32.1454 55.1539C31.269 55.6738 30.5854 56.4036 30.1038 57.2961L33.6238 59.1959ZM34.1948 58.589C34.4133 58.4579 34.6901 58.37 35.0838 58.37V54.37C34.0402 54.37 33.0383 54.6181 32.1368 55.159L34.1948 58.589ZM45.7592 56.608L44.345 58.0222L44.345 58.0222L45.7592 56.608ZM45.7592 63.762L47.1734 65.1762L47.1936 65.156L47.2133 65.1352L45.7592 63.762ZM44.5552 63.762L43.1012 65.1352L43.1208 65.156L43.141 65.1762L44.5552 63.762ZM44.3172 62.46L45.0745 60.6089L42.3172 59.4809V62.46H44.3172ZM44.6252 62.586H46.6252V61.2433L45.3825 60.7349L44.6252 62.586ZM44.4292 63.034L46.0079 64.2619L46.0239 64.2413L46.0393 64.2204L44.4292 63.034ZM43.8972 63.538L45.0972 65.138L45.0972 65.138L43.8972 63.538ZM43.0992 63.972L43.8015 65.8447L43.8169 65.8389L43.8323 65.8328L43.0992 63.972ZM40.3692 63.65L39.2877 65.3324L39.2984 65.3392L39.3092 65.346L40.3692 63.65ZM39.1232 62.278L37.3401 63.1837L37.3487 63.2008L37.3577 63.2177L39.1232 62.278ZM39.1232 58.246L37.3515 57.318L37.346 57.3287L39.1232 58.246ZM40.3552 56.874L41.429 58.5613L41.4398 58.5544L41.4506 58.5474L40.3552 56.874ZM43.1692 56.552L42.4899 58.4331L42.4899 58.4331L43.1692 56.552ZM44.0372 57.014L42.8178 58.5992L42.8322 58.6103L42.8468 58.6211L44.0372 57.014ZM44.6112 57.588L42.9471 58.6974L42.9779 58.7436L43.0112 58.788L44.6112 57.588ZM44.8212 58.064L45.5005 59.9451L46.8212 59.4682V58.064H44.8212ZM44.3172 58.246H42.3172V61.0946L44.9965 60.1271L44.3172 58.246ZM44.5552 56.622L45.9694 58.0362L45.9896 58.016L46.0093 57.9952L44.5552 56.622ZM43.4072 62.292L42.2978 60.6279L42.2978 60.6279L43.4072 62.292ZM44.1212 61.452L42.3324 60.5576L42.3229 60.5766L42.3138 60.5958L44.1212 61.452ZM44.1212 59.058L42.3138 59.9142L42.3229 59.9334L42.3324 59.9524L44.1212 59.058ZM43.4072 58.218L42.2978 59.8821L42.2978 59.8821L43.4072 58.218ZM41.2652 58.218L42.3746 59.8821L42.3746 59.8821L41.2652 58.218ZM40.5372 59.058L38.7484 58.1636L38.7389 58.1826L38.7298 58.2018L40.5372 59.058ZM40.5372 61.452L38.7298 62.3082L38.7389 62.3274L38.7484 62.3464L40.5372 61.452ZM41.2652 62.292L42.3746 60.6279L42.3746 60.6279L41.2652 62.292ZM45.1572 58.37C45.058 58.37 44.9156 58.3531 44.7544 58.2894C44.5902 58.2245 44.4512 58.1284 44.345 58.0222L47.1735 55.1938C46.6073 54.6276 45.8826 54.37 45.1572 54.37V58.37ZM44.345 58.0222C44.2311 57.9083 44.1349 57.7643 44.0721 57.6018C44.0111 57.4438 43.9972 57.3092 43.9972 57.224H47.9972C47.9972 56.5128 47.7548 55.7751 47.1734 55.1938L44.345 58.0222ZM43.9972 57.224V63.146H47.9972V57.224H43.9972ZM43.9972 63.146C43.9972 63.0461 44.0143 62.9109 44.0721 62.7612C44.1306 62.6098 44.2153 62.4839 44.3052 62.3888L47.2133 65.1352C47.7415 64.576 47.9972 63.8711 47.9972 63.146H43.9972ZM44.345 62.3478C44.4512 62.2416 44.5902 62.1455 44.7544 62.0806C44.9156 62.0169 45.058 62 45.1572 62V66C45.8826 66 46.6073 65.7424 47.1734 65.1762L44.345 62.3478ZM45.1572 62C45.2564 62 45.3989 62.0169 45.5601 62.0806C45.7243 62.1455 45.8632 62.2416 45.9694 62.3478L43.141 65.1762C43.7072 65.7424 44.4318 66 45.1572 66V62ZM46.0093 62.3888C46.0991 62.4839 46.1838 62.6098 46.2423 62.7612C46.3002 62.9109 46.3172 63.0461 46.3172 63.146H42.3172C42.3172 63.8711 42.573 64.576 43.1012 65.1352L46.0093 62.3888ZM46.3172 63.146V62.46H42.3172V63.146H46.3172ZM43.56 64.3111L43.868 64.4371L45.3825 60.7349L45.0745 60.6089L43.56 64.3111ZM42.6252 62.586C42.6252 62.2934 42.7019 62.0834 42.7439 61.9874C42.7874 61.8879 42.8249 61.8398 42.8191 61.8476L46.0393 64.2204C46.2427 63.9444 46.6252 63.3618 46.6252 62.586H42.6252ZM42.8505 61.8061C42.8571 61.7977 42.821 61.8452 42.6972 61.938L45.0972 65.138C45.4215 64.8948 45.74 64.6063 46.0079 64.2619L42.8505 61.8061ZM42.6972 61.938C42.6398 61.9811 42.537 62.0439 42.3662 62.1112L43.8323 65.8328C44.2775 65.6574 44.7067 65.4309 45.0972 65.138L42.6972 61.938ZM42.397 62.0993C42.3466 62.1182 42.2608 62.14 42.1192 62.14V66.14C42.687 66.14 43.2545 66.0498 43.8015 65.8447L42.397 62.0993ZM42.1192 62.14C41.8324 62.14 41.6194 62.0729 41.4292 61.954L39.3092 65.346C40.1644 65.8805 41.118 66.14 42.1192 66.14V62.14ZM41.4507 61.9676C41.2318 61.8269 41.0452 61.6322 40.8887 61.3383L37.3577 63.2177C37.8173 64.0811 38.4613 64.8011 39.2877 65.3324L41.4507 61.9676ZM40.9064 61.3723C40.7698 61.1034 40.6752 60.7495 40.6752 60.262H36.6752C36.6752 61.2865 36.8793 62.2766 37.3401 63.1837L40.9064 61.3723ZM40.6752 60.262C40.6752 59.76 40.7718 59.4126 40.9005 59.1633L37.346 57.3287C36.8773 58.2368 36.6752 59.2334 36.6752 60.262H40.6752ZM40.8949 59.174C41.0558 58.8668 41.2371 58.6834 41.429 58.5613L39.2815 55.1867C38.4467 55.7179 37.8066 56.4492 37.3516 57.318L40.8949 59.174ZM41.4506 58.5474C41.6317 58.4288 41.8191 58.37 42.0632 58.37V54.37C41.0567 54.37 40.1054 54.6472 39.2599 55.2006L41.4506 58.5474ZM42.0632 58.37C42.2613 58.37 42.3969 58.3995 42.4899 58.4331L43.8485 54.6709C43.2695 54.4618 42.6678 54.37 42.0632 54.37V58.37ZM42.4899 58.4331C42.6633 58.4957 42.7635 58.5575 42.8178 58.5992L45.2567 55.4288C44.8256 55.0972 44.3471 54.8509 43.8485 54.6709L42.4899 58.4331ZM42.8468 58.6211C42.9057 58.6648 42.9395 58.6957 42.9555 58.7117C42.9715 58.7277 42.9647 58.7237 42.9471 58.6974L46.2753 56.4786C45.9821 56.0388 45.6074 55.6881 45.2277 55.4069L42.8468 58.6211ZM43.0112 58.788C43.0191 58.7985 42.9822 58.7525 42.9389 58.6543C42.8966 58.5583 42.8212 58.3517 42.8212 58.064H46.8212C46.8212 57.2745 46.4308 56.6807 46.2112 56.388L43.0112 58.788ZM44.1419 56.1829L43.6379 56.3649L44.9965 60.1271L45.5005 59.9451L44.1419 56.1829ZM46.3172 58.246V57.224H42.3172V58.246H46.3172ZM46.3172 57.224C46.3172 57.3232 46.3004 57.4657 46.2367 57.6268C46.1717 57.7911 46.0757 57.93 45.9694 58.0362L43.141 55.2078C42.5748 55.774 42.3172 56.4986 42.3172 57.224H46.3172ZM46.0093 57.9952C45.9089 58.1015 45.7702 58.2054 45.597 58.2779C45.426 58.3495 45.2704 58.37 45.1572 58.37V54.37C44.3953 54.37 43.6585 54.6587 43.1012 55.2488L46.0093 57.9952ZM42.3292 64.6C43.0899 64.6 43.8446 64.4041 44.5166 63.9561L42.2978 60.6279C42.3066 60.6221 42.317 60.6161 42.3285 60.6108C42.34 60.6055 42.35 60.602 42.3573 60.6C42.373 60.5955 42.3669 60.6 42.3292 60.6V64.6ZM44.5166 63.9561C45.1446 63.5375 45.6153 62.9699 45.9287 62.3082L42.3138 60.5958C42.3064 60.6113 42.3007 60.621 42.2973 60.6262C42.294 60.6314 42.2924 60.6332 42.2929 60.6327C42.2933 60.6322 42.2946 60.6308 42.2964 60.6292C42.2982 60.6276 42.2989 60.6272 42.2978 60.6279L44.5166 63.9561ZM45.9101 62.3464C46.2405 61.6856 46.3872 60.9777 46.3872 60.262H42.3872C42.3872 60.4236 42.3566 60.5091 42.3324 60.5576L45.9101 62.3464ZM46.3872 60.262C46.3872 59.5441 46.2434 58.8301 45.9101 58.1636L42.3324 59.9524C42.3538 59.9952 42.3872 60.0839 42.3872 60.262H46.3872ZM45.9287 58.2018C45.6153 57.5401 45.1446 56.9725 44.5166 56.5539L42.2978 59.8821C42.2989 59.8828 42.2982 59.8824 42.2964 59.8808C42.2946 59.8792 42.2933 59.8778 42.2929 59.8773C42.2924 59.8768 42.294 59.8786 42.2973 59.8838C42.3007 59.889 42.3064 59.8987 42.3138 59.9142L45.9287 58.2018ZM44.5166 56.5539C43.8446 56.1059 43.0899 55.91 42.3292 55.91V59.91C42.3669 59.91 42.373 59.9145 42.3573 59.91C42.35 59.908 42.34 59.9045 42.3285 59.8992C42.317 59.8939 42.3066 59.8879 42.2978 59.8821L44.5166 56.5539ZM42.3292 55.91C41.5678 55.91 40.8201 56.111 40.1558 56.5539L42.3746 59.8821C42.3679 59.8866 42.3588 59.8919 42.348 59.8969C42.3371 59.902 42.3269 59.9057 42.3184 59.9081C42.3 59.9134 42.3005 59.91 42.3292 59.91V55.91ZM40.1558 56.5539C39.5376 56.966 39.0699 57.5205 38.7484 58.1636L42.3261 59.9524C42.3452 59.9142 42.3592 59.897 42.3636 59.8919C42.3676 59.8873 42.3701 59.8852 42.3746 59.8821L40.1558 56.5539ZM38.7298 58.2018C38.4182 58.8596 38.2852 59.5598 38.2852 60.262H42.2852C42.2852 60.0682 42.3203 59.9657 42.3447 59.9142L38.7298 58.2018ZM38.2852 60.262C38.2852 60.9617 38.4208 61.6559 38.7298 62.3082L42.3447 60.5958C42.3177 60.5388 42.2852 60.4397 42.2852 60.262H38.2852ZM38.7484 62.3464C39.0699 62.9895 39.5376 63.544 40.1558 63.9561L42.3746 60.6279C42.3701 60.6248 42.3676 60.6227 42.3636 60.6181C42.3592 60.613 42.3452 60.5958 42.3261 60.5576L38.7484 62.3464ZM40.1558 63.9561C40.8201 64.399 41.5678 64.6 42.3292 64.6V60.6C42.3005 60.6 42.3 60.5966 42.3184 60.6019C42.3269 60.6043 42.3371 60.608 42.348 60.6131C42.3588 60.6181 42.3679 60.6234 42.3746 60.6279L40.1558 63.9561ZM49.3843 63.762L47.97 62.3478L47.97 62.3478L49.3843 63.762ZM48.1943 63.762L46.7402 65.1352L46.7598 65.156L46.78 65.1762L48.1943 63.762ZM48.1943 53.892L46.78 52.4778L46.78 52.4778L48.1943 53.892ZM49.3983 53.892L47.9034 55.2207L47.9425 55.2647L47.984 55.3062L49.3983 53.892ZM47.6363 63.146C47.6363 63.0321 47.657 62.8841 47.7222 62.7247C47.7877 62.5645 47.8797 62.4381 47.97 62.3478L50.7985 65.1762C51.3504 64.6242 51.6363 63.9064 51.6363 63.146H47.6363ZM47.97 62.3478C48.0763 62.2416 48.2152 62.1455 48.3794 62.0806C48.5406 62.0169 48.6831 62 48.7823 62V66C49.5077 66 50.2323 65.7424 50.7985 65.1762L47.97 62.3478ZM48.7823 62C48.8961 62 49.0467 62.0202 49.2106 62.0866C49.3761 62.1536 49.51 62.2493 49.6085 62.3478L46.78 65.1762C47.3301 65.7263 48.0421 66 48.7823 66V62ZM49.6483 62.3888C49.7382 62.4839 49.8228 62.6098 49.8813 62.7612C49.9392 62.9109 49.9563 63.0461 49.9563 63.146H45.9563C45.9563 63.8711 46.212 64.576 46.7402 65.1352L49.6483 62.3888ZM49.9563 63.146V54.494H45.9563V63.146H49.9563ZM49.9563 54.494C49.9563 54.5932 49.9394 54.7357 49.8757 54.8968C49.8107 55.0611 49.7147 55.2 49.6085 55.3062L46.78 52.4778C46.2139 53.044 45.9563 53.7686 45.9563 54.494H49.9563ZM49.6085 55.3062C49.5181 55.3965 49.3917 55.4886 49.2315 55.5541C49.0722 55.6193 48.9241 55.64 48.8103 55.64V51.64C48.0499 51.64 47.332 51.9258 46.78 52.4778L49.6085 55.3062ZM48.8103 55.64C48.698 55.64 48.5344 55.6197 48.3514 55.5413C48.1646 55.4612 48.0133 55.3443 47.9034 55.2207L50.8931 52.5633C50.3315 51.9315 49.573 51.64 48.8103 51.64V55.64ZM47.984 55.3062C47.8778 55.2 47.7818 55.0611 47.7168 54.8968C47.6531 54.7357 47.6363 54.5932 47.6363 54.494H51.6363C51.6363 53.7686 51.3786 53.044 50.8125 52.4778L47.984 55.3062ZM47.6363 54.494V63.146H51.6363V54.494H47.6363Z" fill="black"/>
<path d="M180.188 60.616C180.332 60.616 180.484 60.64 180.644 60.688C180.82 60.736 181.012 60.832 181.22 60.976C181.492 61.184 181.812 61.368 182.18 61.528C182.564 61.688 183.004 61.768 183.5 61.768C183.996 61.768 184.46 61.648 184.892 61.408C185.34 61.152 185.708 60.8 185.996 60.352C186.284 59.888 186.428 59.336 186.428 58.696C186.428 58.088 186.3 57.584 186.044 57.184C185.804 56.784 185.476 56.48 185.06 56.272C184.66 56.064 184.228 55.96 183.764 55.96C183.412 55.96 183.116 55.992 182.876 56.056C182.652 56.12 182.428 56.192 182.204 56.272C181.996 56.336 181.748 56.368 181.46 56.368C181.092 56.368 180.804 56.24 180.596 55.984C180.404 55.728 180.308 55.424 180.308 55.072C180.308 54.848 180.348 54.648 180.428 54.472C180.524 54.296 180.66 54.104 180.836 53.896L185.06 49.408L185.708 49.96H179.804C179.42 49.96 179.1 49.832 178.844 49.576C178.588 49.32 178.46 49 178.46 48.616C178.46 48.248 178.588 47.944 178.844 47.704C179.1 47.448 179.42 47.32 179.804 47.32H187.148C187.644 47.32 188.012 47.456 188.252 47.728C188.508 48 188.636 48.344 188.636 48.76C188.636 48.968 188.58 49.176 188.468 49.384C188.356 49.576 188.22 49.752 188.06 49.912L183.812 54.472L183.164 53.656C183.34 53.576 183.58 53.504 183.884 53.44C184.204 53.376 184.468 53.344 184.676 53.344C185.62 53.344 186.436 53.592 187.124 54.088C187.828 54.568 188.364 55.2 188.732 55.984C189.116 56.752 189.308 57.584 189.308 58.48C189.308 59.664 189.044 60.688 188.516 61.552C187.988 62.416 187.244 63.08 186.284 63.544C185.324 64.008 184.204 64.24 182.924 64.24C182.332 64.24 181.748 64.168 181.172 64.024C180.596 63.88 180.1 63.688 179.684 63.448C179.332 63.256 179.092 63.048 178.964 62.824C178.852 62.584 178.796 62.36 178.796 62.152C178.796 61.784 178.924 61.44 179.18 61.12C179.452 60.784 179.788 60.616 180.188 60.616ZM197.759 64.24C196.383 64.24 195.215 63.88 194.255 63.16C193.311 62.424 192.591 61.408 192.095 60.112C191.599 58.8 191.351 57.296 191.351 55.6C191.351 53.888 191.599 52.384 192.095 51.088C192.591 49.792 193.311 48.784 194.255 48.064C195.215 47.328 196.383 46.96 197.759 46.96C199.135 46.96 200.295 47.328 201.239 48.064C202.199 48.784 202.927 49.792 203.423 51.088C203.919 52.384 204.167 53.888 204.167 55.6C204.167 57.296 203.919 58.8 203.423 60.112C202.927 61.408 202.199 62.424 201.239 63.16C200.295 63.88 199.135 64.24 197.759 64.24ZM197.759 61.36C198.431 61.36 199.007 61.152 199.487 60.736C199.983 60.304 200.367 59.664 200.639 58.816C200.911 57.952 201.047 56.88 201.047 55.6C201.047 54.304 200.911 53.232 200.639 52.384C200.367 51.536 199.983 50.904 199.487 50.488C199.007 50.056 198.431 49.84 197.759 49.84C197.103 49.84 196.527 50.056 196.031 50.488C195.535 50.904 195.151 51.536 194.879 52.384C194.607 53.232 194.471 54.304 194.471 55.6C194.471 56.88 194.607 57.952 194.879 58.816C195.151 59.664 195.535 60.304 196.031 60.736C196.527 61.152 197.103 61.36 197.759 61.36ZM212.501 64.24C211.125 64.24 209.957 63.88 208.997 63.16C208.053 62.424 207.333 61.408 206.837 60.112C206.341 58.8 206.093 57.296 206.093 55.6C206.093 53.888 206.341 52.384 206.837 51.088C207.333 49.792 208.053 48.784 208.997 48.064C209.957 47.328 211.125 46.96 212.501 46.96C213.877 46.96 215.037 47.328 215.981 48.064C216.941 48.784 217.669 49.792 218.165 51.088C218.661 52.384 218.909 53.888 218.909 55.6C218.909 57.296 218.661 58.8 218.165 60.112C217.669 61.408 216.941 62.424 215.981 63.16C215.037 63.88 213.877 64.24 212.501 64.24ZM212.501 61.36C213.173 61.36 213.749 61.152 214.229 60.736C214.725 60.304 215.109 59.664 215.381 58.816C215.653 57.952 215.789 56.88 215.789 55.6C215.789 54.304 215.653 53.232 215.381 52.384C215.109 51.536 214.725 50.904 214.229 50.488C213.749 50.056 213.173 49.84 212.501 49.84C211.845 49.84 211.269 50.056 210.773 50.488C210.277 50.904 209.893 51.536 209.621 52.384C209.349 53.232 209.213 54.304 209.213 55.6C209.213 56.88 209.349 57.952 209.621 58.816C209.893 59.664 210.277 60.304 210.773 60.736C211.269 61.152 211.845 61.36 212.501 61.36ZM227.243 64.24C225.867 64.24 224.699 63.88 223.739 63.16C222.795 62.424 222.075 61.408 221.579 60.112C221.083 58.8 220.835 57.296 220.835 55.6C220.835 53.888 221.083 52.384 221.579 51.088C222.075 49.792 222.795 48.784 223.739 48.064C224.699 47.328 225.867 46.96 227.243 46.96C228.619 46.96 229.779 47.328 230.723 48.064C231.683 48.784 232.411 49.792 232.907 51.088C233.403 52.384 233.651 53.888 233.651 55.6C233.651 57.296 233.403 58.8 232.907 60.112C232.411 61.408 231.683 62.424 230.723 63.16C229.779 63.88 228.619 64.24 227.243 64.24ZM227.243 61.36C227.915 61.36 228.491 61.152 228.971 60.736C229.467 60.304 229.851 59.664 230.123 58.816C230.395 57.952 230.531 56.88 230.531 55.6C230.531 54.304 230.395 53.232 230.123 52.384C229.851 51.536 229.467 50.904 228.971 50.488C228.491 50.056 227.915 49.84 227.243 49.84C226.587 49.84 226.011 50.056 225.515 50.488C225.019 50.904 224.635 51.536 224.363 52.384C224.091 53.232 223.955 54.304 223.955 55.6C223.955 56.88 224.091 57.952 224.363 58.816C224.635 59.664 225.019 60.304 225.515 60.736C226.011 61.152 226.587 61.36 227.243 61.36ZM249.142 64C248.88 64 248.67 63.8927 248.512 63.678L245.278 59.422L246.552 58.12L249.898 62.544C250.028 62.7213 250.094 62.9127 250.094 63.118C250.094 63.3793 249.996 63.594 249.8 63.762C249.604 63.9207 249.384 64 249.142 64ZM249.31 54.13C249.534 54.13 249.716 54.2233 249.856 54.41C250.005 54.5873 250.08 54.7693 250.08 54.956C250.08 55.152 249.996 55.334 249.828 55.502L243.962 61.116L243.892 59.114L248.624 54.452C248.838 54.2373 249.067 54.13 249.31 54.13ZM243.262 64C243 64 242.79 63.9207 242.632 63.762C242.473 63.594 242.394 63.3887 242.394 63.146V55.054C242.394 54.8113 242.478 54.6107 242.646 54.452C242.814 54.284 243.028 54.2 243.29 54.2C243.551 54.2 243.756 54.284 243.906 54.452C244.064 54.6107 244.144 54.8113 244.144 55.054V63.146C244.144 63.3887 244.064 63.594 243.906 63.762C243.747 63.9207 243.532 64 243.262 64ZM254.459 56.37C254.991 56.37 255.453 56.426 255.845 56.538C256.246 56.65 256.554 56.8087 256.769 57.014C256.993 57.21 257.105 57.448 257.105 57.728C257.105 57.9147 257.049 58.092 256.937 58.26C256.825 58.4187 256.661 58.498 256.447 58.498C256.297 58.498 256.171 58.4793 256.069 58.442C255.975 58.3953 255.891 58.3393 255.817 58.274C255.742 58.2087 255.653 58.148 255.551 58.092C255.457 58.036 255.313 57.994 255.117 57.966C254.93 57.9287 254.79 57.91 254.697 57.91C254.221 57.91 253.815 58.0127 253.479 58.218C253.152 58.4233 252.9 58.7033 252.723 59.058C252.545 59.4033 252.457 59.8047 252.457 60.262C252.457 60.71 252.545 61.1113 252.723 61.466C252.909 61.8113 253.161 62.0867 253.479 62.292C253.805 62.4973 254.179 62.6 254.599 62.6C254.832 62.6 255.033 62.586 255.201 62.558C255.369 62.53 255.509 62.488 255.621 62.432C255.751 62.3573 255.868 62.278 255.971 62.194C256.073 62.11 256.227 62.068 256.433 62.068C256.675 62.068 256.862 62.1473 256.993 62.306C257.123 62.4553 257.189 62.642 257.189 62.866C257.189 63.0993 257.058 63.314 256.797 63.51C256.535 63.6967 256.19 63.8507 255.761 63.972C255.341 64.084 254.883 64.14 254.389 64.14C253.651 64.14 253.012 63.972 252.471 63.636C251.929 63.2907 251.509 62.824 251.211 62.236C250.921 61.648 250.777 60.99 250.777 60.262C250.777 59.4967 250.931 58.8247 251.239 58.246C251.556 57.658 251.99 57.2007 252.541 56.874C253.101 56.538 253.74 56.37 254.459 56.37ZM264.532 56.37C264.775 56.37 264.976 56.4493 265.134 56.608C265.293 56.7667 265.372 56.972 265.372 57.224V63.146C265.372 63.3887 265.293 63.594 265.134 63.762C264.976 63.9207 264.775 64 264.532 64C264.29 64 264.089 63.9207 263.93 63.762C263.772 63.594 263.692 63.3887 263.692 63.146V62.46L264 62.586C264 62.7073 263.935 62.8567 263.804 63.034C263.674 63.202 263.496 63.37 263.272 63.538C263.048 63.706 262.782 63.8507 262.474 63.972C262.176 64.084 261.849 64.14 261.494 64.14C260.85 64.14 260.267 63.9767 259.744 63.65C259.222 63.314 258.806 62.8567 258.498 62.278C258.2 61.69 258.05 61.018 258.05 60.262C258.05 59.4967 258.2 58.8247 258.498 58.246C258.806 57.658 259.217 57.2007 259.73 56.874C260.244 56.538 260.813 56.37 261.438 56.37C261.84 56.37 262.208 56.4307 262.544 56.552C262.88 56.6733 263.17 56.8273 263.412 57.014C263.664 57.2007 263.856 57.392 263.986 57.588C264.126 57.7747 264.196 57.9333 264.196 58.064L263.692 58.246V57.224C263.692 56.9813 263.772 56.7807 263.93 56.622C264.089 56.454 264.29 56.37 264.532 56.37ZM261.704 62.6C262.115 62.6 262.474 62.4973 262.782 62.292C263.09 62.0867 263.328 61.8067 263.496 61.452C263.674 61.0973 263.762 60.7007 263.762 60.262C263.762 59.814 263.674 59.4127 263.496 59.058C263.328 58.7033 263.09 58.4233 262.782 58.218C262.474 58.0127 262.115 57.91 261.704 57.91C261.303 57.91 260.948 58.0127 260.64 58.218C260.332 58.4233 260.09 58.7033 259.912 59.058C259.744 59.4127 259.66 59.814 259.66 60.262C259.66 60.7007 259.744 61.0973 259.912 61.452C260.09 61.8067 260.332 62.0867 260.64 62.292C260.948 62.4973 261.303 62.6 261.704 62.6ZM269.011 63.146C269.011 63.3887 268.927 63.594 268.759 63.762C268.601 63.9207 268.4 64 268.157 64C267.924 64 267.728 63.9207 267.569 63.762C267.411 63.594 267.331 63.3887 267.331 63.146V54.494C267.331 54.2513 267.411 54.0507 267.569 53.892C267.737 53.724 267.943 53.64 268.185 53.64C268.428 53.64 268.624 53.724 268.773 53.892C268.932 54.0507 269.011 54.2513 269.011 54.494V63.146Z" fill="white"/>
<path d="M180.644 60.688L180.069 62.6037L180.093 62.6109L180.118 62.6175L180.644 60.688ZM181.22 60.976L182.435 59.3873L182.397 59.3585L182.358 59.3316L181.22 60.976ZM182.18 61.528L181.383 63.3621L181.397 63.3683L181.411 63.3742L182.18 61.528ZM184.892 61.408L185.863 63.1563L185.874 63.1505L185.884 63.1445L184.892 61.408ZM185.996 60.352L187.678 61.4335L187.687 61.4202L187.695 61.4067L185.996 60.352ZM186.044 57.184L184.329 58.213L184.344 58.2378L184.359 58.2621L186.044 57.184ZM185.06 56.272L184.137 58.0464L184.151 58.0538L184.166 58.0609L185.06 56.272ZM182.876 56.056L182.361 54.1235L182.344 54.1281L182.327 54.133L182.876 56.056ZM182.204 56.272L182.792 58.1836L182.835 58.1705L182.877 58.1555L182.204 56.272ZM180.596 55.984L178.996 57.184L179.019 57.2151L179.044 57.2452L180.596 55.984ZM180.428 54.472L178.672 53.5143L178.637 53.5782L178.607 53.6444L180.428 54.472ZM180.836 53.896L179.38 52.5253L179.343 52.5638L179.309 52.6041L180.836 53.896ZM185.06 49.408L186.357 47.8855L184.908 46.6513L183.604 48.0373L185.06 49.408ZM185.708 49.96V51.96H191.14L187.005 48.4375L185.708 49.96ZM178.844 49.576L177.43 50.9902L177.43 50.9902L178.844 49.576ZM178.844 47.704L180.212 49.1631L180.235 49.141L180.258 49.1182L178.844 47.704ZM188.252 47.728L186.752 49.0512L186.774 49.0753L186.796 49.0987L188.252 47.728ZM188.468 49.384L190.196 50.3917L190.213 50.3623L190.229 50.3322L188.468 49.384ZM188.06 49.912L186.646 48.4978L186.621 48.5228L186.597 48.5487L188.06 49.912ZM183.812 54.472L182.246 55.7158L183.691 57.5359L185.275 55.8353L183.812 54.472ZM183.164 53.656L182.336 51.8353L180.006 52.8947L181.598 54.8998L183.164 53.656ZM183.884 53.44L183.492 51.4788L183.482 51.4808L183.472 51.4829L183.884 53.44ZM187.124 54.088L185.954 55.7104L185.976 55.7257L185.997 55.7405L187.124 54.088ZM188.732 55.984L186.922 56.8338L186.932 56.8563L186.943 56.8784L188.732 55.984ZM188.516 61.552L186.809 60.5091L186.809 60.5091L188.516 61.552ZM186.284 63.544L185.414 61.7433L185.414 61.7433L186.284 63.544ZM181.172 64.024L181.657 62.0837L181.657 62.0837L181.172 64.024ZM179.684 63.448L180.683 61.7156L180.663 61.7037L180.642 61.6922L179.684 63.448ZM178.964 62.824L177.152 63.6698L177.187 63.7446L177.228 63.8163L178.964 62.824ZM179.18 61.12L177.625 59.8616L177.618 59.8706L179.18 61.12ZM180.188 62.616C180.109 62.616 180.067 62.6029 180.069 62.6037L181.219 58.7723C180.901 58.6771 180.555 58.616 180.188 58.616V62.616ZM180.118 62.6175C180.088 62.6093 180.065 62.6013 180.05 62.5955C180.035 62.5897 180.027 62.5856 180.026 62.5849C180.024 62.5841 180.028 62.5861 180.038 62.592C180.048 62.5979 180.062 62.607 180.082 62.6204L182.358 59.3316C182.031 59.1047 181.632 58.8843 181.17 58.7585L180.118 62.6175ZM180.005 62.5647C180.426 62.8863 180.891 63.1483 181.383 63.3621L182.977 59.6939C182.733 59.5877 182.558 59.4817 182.435 59.3873L180.005 62.5647ZM181.411 63.3742C182.081 63.6533 182.79 63.768 183.5 63.768V59.768C183.218 59.768 183.047 59.7227 182.949 59.6818L181.411 63.3742ZM183.5 63.768C184.335 63.768 185.133 63.562 185.863 63.1563L183.921 59.6597C183.787 59.734 183.657 59.768 183.5 59.768V63.768ZM185.884 63.1445C186.621 62.7236 187.222 62.1431 187.678 61.4335L184.314 59.2705C184.194 59.4569 184.059 59.5804 183.9 59.6715L185.884 63.1445ZM187.695 61.4067C188.212 60.575 188.428 59.6437 188.428 58.696H184.428C184.428 59.0283 184.356 59.201 184.297 59.2973L187.695 61.4067ZM188.428 58.696C188.428 57.8119 188.241 56.9067 187.729 56.1059L184.359 58.2621C184.362 58.2654 184.377 58.2903 184.394 58.3543C184.41 58.421 184.428 58.5308 184.428 58.696H188.428ZM187.759 56.155C187.324 55.4299 186.712 54.8618 185.954 54.4831L184.166 58.0609C184.24 58.0982 184.284 58.1381 184.329 58.213L187.759 56.155ZM185.983 54.4976C185.289 54.137 184.54 53.96 183.764 53.96V57.96C183.916 57.96 184.031 57.991 184.137 58.0464L185.983 54.4976ZM183.764 53.96C183.304 53.96 182.822 54.0004 182.361 54.1235L183.391 57.9885C183.41 57.9836 183.52 57.96 183.764 57.96V53.96ZM182.327 54.133C182.06 54.2091 181.795 54.2943 181.531 54.3885L182.877 58.1555C183.061 58.0897 183.244 58.0309 183.425 57.979L182.327 54.133ZM181.616 54.3604C181.635 54.3546 181.634 54.3569 181.606 54.3604C181.579 54.364 181.531 54.368 181.46 54.368V58.368C181.887 58.368 182.343 58.3216 182.792 58.1836L181.616 54.3604ZM181.46 54.368C181.509 54.368 181.629 54.3773 181.78 54.4444C181.938 54.5143 182.063 54.6181 182.148 54.7228L179.044 57.2452C179.679 58.0266 180.569 58.368 181.46 58.368V54.368ZM182.196 54.784C182.235 54.8358 182.267 54.8978 182.287 54.9617C182.307 55.0237 182.308 55.0648 182.308 55.072H178.308C178.308 55.8111 178.518 56.547 178.996 57.184L182.196 54.784ZM182.308 55.072C182.308 55.0885 182.304 55.1776 182.249 55.2996L178.607 53.6444C178.392 54.1184 178.308 54.6075 178.308 55.072H182.308ZM182.184 55.4297C182.197 55.4062 182.245 55.3266 182.363 55.1879L179.309 52.6041C179.075 52.8814 178.851 53.1858 178.672 53.5143L182.184 55.4297ZM182.292 55.2667L186.516 50.7787L183.604 48.0373L179.38 52.5253L182.292 55.2667ZM183.763 50.9305L184.411 51.4825L187.005 48.4375L186.357 47.8855L183.763 50.9305ZM185.708 47.96H179.804V51.96H185.708V47.96ZM179.804 47.96C179.837 47.96 179.917 47.9663 180.019 48.007C180.123 48.0487 180.205 48.1081 180.258 48.1618L177.43 50.9902C178.085 51.6458 178.925 51.96 179.804 51.96V47.96ZM180.258 48.1618C180.312 48.2155 180.371 48.2971 180.413 48.4012C180.454 48.503 180.46 48.5826 180.46 48.616H176.46C176.46 49.4947 176.774 50.3346 177.43 50.9902L180.258 48.1618ZM180.46 48.616C180.46 48.6677 180.45 48.7675 180.399 48.8881C180.348 49.0109 180.275 49.1037 180.212 49.1631L177.476 46.2449C176.795 46.8832 176.46 47.7255 176.46 48.616H180.46ZM180.258 49.1182C180.205 49.1719 180.123 49.2313 180.019 49.273C179.917 49.3137 179.837 49.32 179.804 49.32V45.32C178.925 45.32 178.085 45.6342 177.43 46.2898L180.258 49.1182ZM179.804 49.32H187.148V45.32H179.804V49.32ZM187.148 49.32C187.219 49.32 187.191 49.3305 187.103 49.298C187.002 49.2609 186.869 49.1833 186.752 49.0512L189.752 46.4048C189.007 45.5611 187.998 45.32 187.148 45.32V49.32ZM186.796 49.0987C186.744 49.044 186.696 48.97 186.666 48.8875C186.636 48.8086 186.636 48.7587 186.636 48.76H190.636C190.636 47.8974 190.354 47.0436 189.708 46.3573L186.796 49.0987ZM186.636 48.76C186.636 48.5944 186.684 48.4792 186.707 48.4358L190.229 50.3322C190.476 49.8728 190.636 49.3416 190.636 48.76H186.636ZM186.74 48.3763C186.717 48.4172 186.687 48.4571 186.646 48.4978L189.474 51.3262C189.753 51.0469 189.995 50.7348 190.196 50.3917L186.74 48.3763ZM186.597 48.5487L182.349 53.1087L185.275 55.8353L189.523 51.2753L186.597 48.5487ZM185.378 53.2282L184.73 52.4122L181.598 54.8998L182.246 55.7158L185.378 53.2282ZM183.992 55.4767C183.978 55.4831 183.993 55.4749 184.051 55.4577C184.106 55.441 184.186 55.4202 184.296 55.3971L183.472 51.4829C183.1 51.5612 182.701 51.6696 182.336 51.8353L183.992 55.4767ZM184.276 55.4012C184.531 55.3502 184.652 55.344 184.676 55.344V51.344C184.284 51.344 183.877 51.4018 183.492 51.4788L184.276 55.4012ZM184.676 55.344C185.25 55.344 185.645 55.4874 185.954 55.7104L188.294 52.4656C187.227 51.6966 185.99 51.344 184.676 51.344V55.344ZM185.997 55.7405C186.401 56.0154 186.703 56.3681 186.922 56.8338L190.542 55.1342C190.025 54.0319 189.255 53.1206 188.251 52.4355L185.997 55.7405ZM186.943 56.8784C187.182 57.3565 187.308 57.8806 187.308 58.48H191.308C191.308 57.2874 191.05 56.1475 190.521 55.0896L186.943 56.8784ZM187.308 58.48C187.308 59.3592 187.115 60.009 186.809 60.5091L190.223 62.5949C190.973 61.367 191.308 59.9688 191.308 58.48H187.308ZM186.809 60.5091C186.493 61.0277 186.047 61.4371 185.414 61.7433L187.154 65.3447C188.441 64.7229 189.483 63.8043 190.223 62.5949L186.809 60.5091ZM185.414 61.7433C184.774 62.0524 183.962 62.24 182.924 62.24V66.24C184.446 66.24 185.874 65.9636 187.154 65.3447L185.414 61.7433ZM182.924 62.24C182.496 62.24 182.075 62.1882 181.657 62.0837L180.687 65.9643C181.421 66.1478 182.168 66.24 182.924 66.24V62.24ZM181.657 62.0837C181.221 61.9746 180.906 61.8439 180.683 61.7156L178.685 65.1804C179.294 65.5321 179.971 65.7854 180.687 65.9643L181.657 62.0837ZM180.642 61.6922C180.56 61.6478 180.538 61.6261 180.55 61.6366C180.562 61.6475 180.63 61.7086 180.7 61.8317L177.228 63.8163C177.615 64.4937 178.214 64.9246 178.726 65.2038L180.642 61.6922ZM180.776 61.9782C180.755 61.9331 180.796 61.9993 180.796 62.152H176.796C176.796 62.7207 176.949 63.2349 177.152 63.6698L180.776 61.9782ZM180.796 62.152C180.796 62.2055 180.786 62.2637 180.766 62.3155C180.748 62.3647 180.731 62.3824 180.742 62.3694L177.618 59.8706C177.113 60.5025 176.796 61.278 176.796 62.152H180.796ZM180.734 62.3784C180.718 62.399 180.654 62.4693 180.53 62.5309C180.403 62.5946 180.278 62.616 180.188 62.616V58.616C179.131 58.616 178.242 59.0999 177.626 59.8616L180.734 62.3784ZM194.255 63.16L193.025 64.7373L193.04 64.7488L193.055 64.76L194.255 63.16ZM192.095 60.112L190.224 60.8193L190.227 60.8269L192.095 60.112ZM192.095 51.088L190.227 50.3731L190.227 50.3731L192.095 51.088ZM194.255 48.064L195.468 49.6542L195.471 49.6512L194.255 48.064ZM201.239 48.064L200.009 49.6413L200.024 49.6528L200.039 49.664L201.239 48.064ZM203.423 51.088L205.291 50.3731L205.291 50.3731L203.423 51.088ZM203.423 60.112L205.291 60.8269L205.293 60.8192L203.423 60.112ZM201.239 63.16L202.452 64.7502L202.455 64.7472L201.239 63.16ZM199.487 60.736L200.796 62.2474L200.8 62.2442L199.487 60.736ZM200.639 58.816L202.543 59.4269L202.546 59.4166L200.639 58.816ZM200.639 52.384L198.734 52.9949L198.734 52.9949L200.639 52.384ZM199.487 50.488L198.149 51.9746L198.175 51.9979L198.201 52.0204L199.487 50.488ZM196.031 50.488L197.316 52.0204L197.33 52.0084L197.344 51.9962L196.031 50.488ZM194.879 52.384L192.974 51.7731L192.974 51.7731L194.879 52.384ZM194.879 58.816L192.971 59.4166L192.974 59.4269L194.879 58.816ZM196.031 60.736L194.717 62.2442L194.731 62.2564L194.745 62.2684L196.031 60.736ZM197.759 62.24C196.749 62.24 196.019 61.9833 195.455 61.56L193.055 64.76C194.41 65.7767 196.016 66.24 197.759 66.24V62.24ZM195.484 61.5827C194.871 61.1044 194.349 60.408 193.963 59.3971L190.227 60.8269C190.832 62.408 191.75 63.7436 193.025 64.7373L195.484 61.5827ZM193.965 59.4048C193.571 58.3605 193.351 57.1035 193.351 55.6H189.351C189.351 57.4885 189.627 59.2395 190.224 60.8192L193.965 59.4048ZM193.351 55.6C193.351 54.0772 193.572 52.8242 193.963 51.8029L190.227 50.3731C189.626 51.9438 189.351 53.6988 189.351 55.6H193.351ZM193.963 51.8029C194.348 50.7943 194.866 50.1132 195.468 49.6542L193.042 46.4738C191.755 47.4548 190.833 48.7897 190.227 50.3731L193.963 51.8029ZM195.471 49.6512C196.035 49.2191 196.759 48.96 197.759 48.96V44.96C196.006 44.96 194.394 45.4369 193.038 46.4768L195.471 49.6512ZM197.759 48.96C198.759 48.96 199.468 49.2192 200.009 49.6413L202.468 46.4867C201.122 45.4368 199.51 44.96 197.759 44.96V48.96ZM200.039 49.664C200.652 50.1242 201.172 50.8028 201.555 51.8029L205.291 50.3731C204.681 48.7812 203.745 47.4438 202.439 46.464L200.039 49.664ZM201.555 51.8029C201.946 52.8242 202.167 54.0772 202.167 55.6H206.167C206.167 53.6988 205.892 51.9438 205.291 50.3731L201.555 51.8029ZM202.167 55.6C202.167 57.1035 201.947 58.3605 201.552 59.4048L205.293 60.8192C205.891 59.2395 206.167 57.4885 206.167 55.6H202.167ZM201.555 59.3971C201.171 60.3996 200.647 61.0933 200.022 61.5728L202.455 64.7472C203.75 63.7547 204.682 62.4164 205.291 60.8269L201.555 59.3971ZM200.026 61.5698C199.484 61.9831 198.769 62.24 197.759 62.24V66.24C199.5 66.24 201.105 65.7769 202.452 64.7502L200.026 61.5698ZM197.759 63.36C198.881 63.36 199.931 62.9978 200.796 62.2474L198.177 59.2246C198.083 59.3062 197.98 59.36 197.759 59.36V63.36ZM200.8 62.2442C201.652 61.5021 202.198 60.5035 202.543 59.4269L198.734 58.2051C198.536 58.8245 198.313 59.1059 198.173 59.2278L200.8 62.2442ZM202.546 59.4166C202.899 58.2964 203.047 57.0067 203.047 55.6H199.047C199.047 56.7533 198.922 57.6076 198.731 58.2154L202.546 59.4166ZM203.047 55.6C203.047 54.1822 202.9 52.8862 202.543 51.7731L198.734 52.9949C198.921 53.5778 199.047 54.4258 199.047 55.6H203.047ZM202.543 51.7731C202.198 50.6958 201.646 49.6892 200.772 48.9556L198.201 52.0204C198.319 52.1188 198.536 52.3762 198.734 52.9949L202.543 51.7731ZM200.825 49.0014C199.961 48.2244 198.903 47.84 197.759 47.84V51.84C197.959 51.84 198.052 51.8876 198.149 51.9746L200.825 49.0014ZM197.759 47.84C196.618 47.84 195.576 48.2316 194.717 48.9798L197.344 51.9962C197.477 51.8804 197.587 51.84 197.759 51.84V47.84ZM194.745 48.9556C193.871 49.6892 193.32 50.6958 192.974 51.7731L196.783 52.9949C196.982 52.3762 197.198 52.1188 197.316 52.0204L194.745 48.9556ZM192.974 51.7731C192.617 52.8862 192.471 54.1822 192.471 55.6H196.471C196.471 54.4258 196.596 53.5778 196.783 52.9949L192.974 51.7731ZM192.471 55.6C192.471 57.0067 192.618 58.2964 192.971 59.4166L196.786 58.2154C196.595 57.6076 196.471 56.7533 196.471 55.6H192.471ZM192.974 59.4269C193.32 60.5035 193.865 61.5021 194.717 62.2442L197.344 59.2278C197.204 59.1059 196.982 58.8245 196.783 58.2051L192.974 59.4269ZM194.745 62.2684C195.607 62.9908 196.639 63.36 197.759 63.36V59.36C197.566 59.36 197.446 59.3132 197.316 59.2036L194.745 62.2684ZM208.997 63.16L207.767 64.7373L207.782 64.7488L207.797 64.76L208.997 63.16ZM206.837 60.112L204.966 60.8193L204.969 60.8269L206.837 60.112ZM206.837 51.088L204.969 50.3731L204.969 50.3731L206.837 51.088ZM208.997 48.064L210.21 49.6542L210.214 49.6512L208.997 48.064ZM215.981 48.064L214.751 49.6413L214.766 49.6528L214.781 49.664L215.981 48.064ZM218.165 51.088L220.033 50.3731L220.033 50.3731L218.165 51.088ZM218.165 60.112L220.033 60.8269L220.036 60.8192L218.165 60.112ZM215.981 63.16L217.194 64.7502L217.198 64.7472L215.981 63.16ZM214.229 60.736L215.539 62.2474L215.542 62.2442L214.229 60.736ZM215.381 58.816L217.285 59.4269L217.289 59.4166L215.381 58.816ZM215.381 52.384L213.476 52.9949L213.476 52.9949L215.381 52.384ZM214.229 50.488L212.891 51.9746L212.917 51.9979L212.944 52.0204L214.229 50.488ZM210.773 50.488L212.058 52.0204L212.072 52.0084L212.086 51.9962L210.773 50.488ZM209.621 52.384L207.716 51.7731L207.716 51.7731L209.621 52.384ZM209.621 58.816L207.713 59.4166L207.716 59.4269L209.621 58.816ZM210.773 60.736L209.459 62.2442L209.473 62.2564L209.488 62.2684L210.773 60.736ZM212.501 62.24C211.491 62.24 210.761 61.9833 210.197 61.56L207.797 64.76C209.152 65.7767 210.758 66.24 212.501 66.24V62.24ZM210.227 61.5827C209.613 61.1044 209.092 60.408 208.705 59.3971L204.969 60.8269C205.574 62.408 206.493 63.7436 207.767 64.7373L210.227 61.5827ZM208.708 59.4048C208.313 58.3605 208.093 57.1035 208.093 55.6H204.093C204.093 57.4885 204.369 59.2395 204.966 60.8192L208.708 59.4048ZM208.093 55.6C208.093 54.0772 208.314 52.8242 208.705 51.8029L204.969 50.3731C204.368 51.9438 204.093 53.6988 204.093 55.6H208.093ZM208.705 51.8029C209.091 50.7943 209.608 50.1132 210.21 49.6542L207.784 46.4738C206.498 47.4548 205.575 48.7897 204.969 50.3731L208.705 51.8029ZM210.214 49.6512C210.777 49.2191 211.501 48.96 212.501 48.96V44.96C210.748 44.96 209.136 45.4369 207.78 46.4768L210.214 49.6512ZM212.501 48.96C213.501 48.96 214.21 49.2192 214.751 49.6413L217.211 46.4867C215.864 45.4368 214.253 44.96 212.501 44.96V48.96ZM214.781 49.664C215.394 50.1242 215.914 50.8028 216.297 51.8029L220.033 50.3731C219.423 48.7812 218.487 47.4438 217.181 46.464L214.781 49.664ZM216.297 51.8029C216.688 52.8242 216.909 54.0772 216.909 55.6H220.909C220.909 53.6988 220.634 51.9438 220.033 50.3731L216.297 51.8029ZM216.909 55.6C216.909 57.1035 216.689 58.3605 216.294 59.4048L220.036 60.8192C220.633 59.2395 220.909 57.4885 220.909 55.6H216.909ZM216.297 59.3971C215.913 60.3996 215.389 61.0933 214.764 61.5728L217.198 64.7472C218.492 63.7547 219.424 62.4164 220.033 60.8269L216.297 59.3971ZM214.768 61.5698C214.226 61.9831 213.511 62.24 212.501 62.24V66.24C214.243 66.24 215.848 65.7769 217.194 64.7502L214.768 61.5698ZM212.501 63.36C213.624 63.36 214.673 62.9978 215.539 62.2474L212.919 59.2246C212.825 59.3062 212.722 59.36 212.501 59.36V63.36ZM215.542 62.2442C216.394 61.5021 216.94 60.5035 217.285 59.4269L213.476 58.2051C213.278 58.8245 213.055 59.1059 212.915 59.2278L215.542 62.2442ZM217.289 59.4166C217.641 58.2964 217.789 57.0067 217.789 55.6H213.789C213.789 56.7533 213.664 57.6076 213.473 58.2154L217.289 59.4166ZM217.789 55.6C217.789 54.1822 217.642 52.8862 217.285 51.7731L213.476 52.9949C213.663 53.5778 213.789 54.4258 213.789 55.6H217.789ZM217.285 51.7731C216.94 50.6958 216.389 49.6892 215.514 48.9556L212.944 52.0204C213.061 52.1188 213.278 52.3762 213.476 52.9949L217.285 51.7731ZM215.567 49.0014C214.703 48.2244 213.645 47.84 212.501 47.84V51.84C212.701 51.84 212.794 51.8876 212.891 51.9746L215.567 49.0014ZM212.501 47.84C211.361 47.84 210.318 48.2316 209.459 48.9798L212.086 51.9962C212.219 51.8804 212.329 51.84 212.501 51.84V47.84ZM209.488 48.9556C208.613 49.6892 208.062 50.6958 207.716 51.7731L211.525 52.9949C211.724 52.3762 211.941 52.1188 212.058 52.0204L209.488 48.9556ZM207.716 51.7731C207.359 52.8862 207.213 54.1822 207.213 55.6H211.213C211.213 54.4258 211.338 53.5778 211.525 52.9949L207.716 51.7731ZM207.213 55.6C207.213 57.0067 207.36 58.2964 207.713 59.4166L211.529 58.2154C211.337 57.6076 211.213 56.7533 211.213 55.6H207.213ZM207.716 59.4269C208.062 60.5035 208.607 61.5021 209.459 62.2442L212.086 59.2278C211.946 59.1059 211.724 58.8245 211.525 58.2051L207.716 59.4269ZM209.488 62.2684C210.349 62.9908 211.382 63.36 212.501 63.36V59.36C212.308 59.36 212.189 59.3132 212.058 59.2036L209.488 62.2684ZM223.739 63.16L222.509 64.7373L222.524 64.7488L222.539 64.76L223.739 63.16ZM221.579 60.112L219.708 60.8193L219.711 60.8269L221.579 60.112ZM221.579 51.088L219.711 50.3731L219.711 50.3731L221.579 51.088ZM223.739 48.064L224.952 49.6542L224.956 49.6512L223.739 48.064ZM230.723 48.064L229.493 49.6413L229.508 49.6528L229.523 49.664L230.723 48.064ZM232.907 51.088L234.775 50.3731L234.775 50.3731L232.907 51.088ZM232.907 60.112L234.775 60.8269L234.778 60.8192L232.907 60.112ZM230.723 63.16L231.936 64.7502L231.94 64.7472L230.723 63.16ZM228.971 60.736L230.281 62.2474L230.285 62.2442L228.971 60.736ZM230.123 58.816L232.027 59.4269L232.031 59.4166L230.123 58.816ZM230.123 52.384L228.219 52.9949L228.219 52.9949L230.123 52.384ZM228.971 50.488L227.633 51.9746L227.659 51.9979L227.686 52.0204L228.971 50.488ZM225.515 50.488L226.8 52.0204L226.815 52.0084L226.829 51.9962L225.515 50.488ZM224.363 52.384L222.459 51.7731L222.459 51.7731L224.363 52.384ZM224.363 58.816L222.455 59.4166L222.459 59.4269L224.363 58.816ZM225.515 60.736L224.201 62.2442L224.215 62.2564L224.23 62.2684L225.515 60.736ZM227.243 62.24C226.234 62.24 225.503 61.9833 224.939 61.56L222.539 64.76C223.895 65.7767 225.5 66.24 227.243 66.24V62.24ZM224.969 61.5827C224.355 61.1044 223.834 60.408 223.447 59.3971L219.711 60.8269C220.316 62.408 221.235 63.7436 222.509 64.7373L224.969 61.5827ZM223.45 59.4048C223.055 58.3605 222.835 57.1035 222.835 55.6H218.835C218.835 57.4885 219.111 59.2395 219.708 60.8192L223.45 59.4048ZM222.835 55.6C222.835 54.0772 223.056 52.8242 223.447 51.8029L219.711 50.3731C219.11 51.9438 218.835 53.6988 218.835 55.6H222.835ZM223.447 51.8029C223.833 50.7943 224.35 50.1132 224.952 49.6542L222.526 46.4738C221.24 47.4548 220.317 48.7897 219.711 50.3731L223.447 51.8029ZM224.956 49.6512C225.52 49.2191 226.244 48.96 227.243 48.96V44.96C225.49 44.96 223.878 45.4369 222.522 46.4768L224.956 49.6512ZM227.243 48.96C228.243 48.96 228.952 49.2192 229.493 49.6413L231.953 46.4867C230.606 45.4368 228.995 44.96 227.243 44.96V48.96ZM229.523 49.664C230.137 50.1242 230.656 50.8028 231.039 51.8029L234.775 50.3731C234.166 48.7812 233.229 47.4438 231.923 46.464L229.523 49.664ZM231.039 51.8029C231.43 52.8242 231.651 54.0772 231.651 55.6H235.651C235.651 53.6988 235.376 51.9438 234.775 50.3731L231.039 51.8029ZM231.651 55.6C231.651 57.1035 231.431 58.3605 231.036 59.4048L234.778 60.8192C235.375 59.2395 235.651 57.4885 235.651 55.6H231.651ZM231.039 59.3971C230.655 60.3996 230.132 61.0933 229.506 61.5728L231.94 64.7472C233.235 63.7547 234.167 62.4164 234.775 60.8269L231.039 59.3971ZM229.51 61.5698C228.968 61.9831 228.253 62.24 227.243 62.24V66.24C228.985 66.24 230.59 65.7769 231.936 64.7502L229.51 61.5698ZM227.243 63.36C228.366 63.36 229.415 62.9978 230.281 62.2474L227.661 59.2246C227.567 59.3062 227.464 59.36 227.243 59.36V63.36ZM230.285 62.2442C231.137 61.5021 231.682 60.5035 232.027 59.4269L228.219 58.2051C228.02 58.8245 227.797 59.1059 227.657 59.2278L230.285 62.2442ZM232.031 59.4166C232.383 58.2964 232.531 57.0067 232.531 55.6H228.531C228.531 56.7533 228.407 57.6076 228.215 58.2154L232.031 59.4166ZM232.531 55.6C232.531 54.1822 232.384 52.8862 232.027 51.7731L228.219 52.9949C228.406 53.5778 228.531 54.4258 228.531 55.6H232.531ZM232.027 51.7731C231.682 50.6958 231.131 49.6892 230.256 48.9556L227.686 52.0204C227.803 52.1188 228.02 52.3762 228.219 52.9949L232.027 51.7731ZM230.309 49.0014C229.446 48.2244 228.387 47.84 227.243 47.84V51.84C227.443 51.84 227.536 51.8876 227.633 51.9746L230.309 49.0014ZM227.243 47.84C226.103 47.84 225.06 48.2316 224.201 48.9798L226.829 51.9962C226.962 51.8804 227.071 51.84 227.243 51.84V47.84ZM224.23 48.9556C223.355 49.6892 222.804 50.6958 222.459 51.7731L226.267 52.9949C226.466 52.3762 226.683 52.1188 226.8 52.0204L224.23 48.9556ZM222.459 51.7731C222.102 52.8862 221.955 54.1822 221.955 55.6H225.955C225.955 54.4258 226.08 53.5778 226.267 52.9949L222.459 51.7731ZM221.955 55.6C221.955 57.0067 222.103 58.2964 222.455 59.4166L226.271 58.2154C226.079 57.6076 225.955 56.7533 225.955 55.6H221.955ZM222.459 59.4269C222.804 60.5035 223.349 61.5021 224.201 62.2442L226.829 59.2278C226.689 59.1059 226.466 58.8245 226.267 58.2051L222.459 59.4269ZM224.23 62.2684C225.091 62.9908 226.124 63.36 227.243 63.36V59.36C227.05 59.36 226.931 59.3132 226.8 59.2036L224.23 62.2684ZM248.512 63.678L250.12 62.4892L250.112 62.4785L250.104 62.468L248.512 63.678ZM245.278 59.422L243.848 58.0232L242.641 59.2573L243.685 60.632L245.278 59.422ZM246.552 58.12L248.147 56.9135L246.746 55.0616L245.122 56.7212L246.552 58.12ZM249.898 62.544L251.508 61.3576L251.5 61.3475L251.493 61.3375L249.898 62.544ZM249.8 63.762L251.058 65.3165L251.08 65.2988L251.101 65.2805L249.8 63.762ZM249.856 54.41L248.256 55.61L248.29 55.6551L248.326 55.6983L249.856 54.41ZM249.828 55.502L251.211 56.9469L251.226 56.9317L251.242 56.9162L249.828 55.502ZM243.962 61.116L241.963 61.1859L242.119 65.6479L245.345 62.5609L243.962 61.116ZM243.892 59.114L242.488 57.6893L241.862 58.3059L241.893 59.1839L243.892 59.114ZM248.624 54.452L250.027 55.8767L250.033 55.8715L250.038 55.8662L248.624 54.452ZM242.632 63.762L241.178 65.1352L241.197 65.156L241.218 65.1762L242.632 63.762ZM242.646 54.452L244.019 55.906L244.04 55.8864L244.06 55.8662L242.646 54.452ZM243.906 54.452L242.411 55.7807L242.45 55.8247L242.492 55.8662L243.906 54.452ZM243.906 63.762L245.32 65.1762L245.34 65.156L245.36 65.1352L243.906 63.762ZM249.142 62C249.293 62 249.492 62.0333 249.698 62.1386C249.903 62.2433 250.04 62.3809 250.12 62.4892L246.903 64.8668C247.43 65.5787 248.23 66 249.142 66V62ZM250.104 62.468L246.87 58.212L243.685 60.632L246.919 64.888L250.104 62.468ZM246.707 60.8208L247.981 59.5188L245.122 56.7212L243.848 58.0232L246.707 60.8208ZM244.957 59.3265L248.303 63.7505L251.493 61.3375L248.147 56.9135L244.957 59.3265ZM248.288 63.7304C248.243 63.6692 248.191 63.581 248.152 63.4668C248.113 63.3511 248.094 63.2317 248.094 63.118H252.094C252.094 62.4539 251.872 61.8521 251.508 61.3576L248.288 63.7304ZM248.094 63.118C248.094 62.9931 248.119 62.8246 248.201 62.6444C248.283 62.4636 248.397 62.3305 248.498 62.2435L251.101 65.2805C251.747 64.7272 252.094 63.9549 252.094 63.118H248.094ZM248.541 62.2075C248.602 62.158 248.692 62.1018 248.808 62.0597C248.925 62.0174 249.041 62 249.142 62V66C249.862 66 250.521 65.7512 251.058 65.3165L248.541 62.2075ZM249.31 56.13C249.135 56.13 248.919 56.0912 248.702 55.9796C248.487 55.8694 248.342 55.7252 248.256 55.61L251.456 53.21C250.956 52.5443 250.193 52.13 249.31 52.13V56.13ZM248.326 55.6983C248.247 55.6051 248.08 55.3465 248.08 54.956H252.08C252.08 54.1922 251.763 53.5696 251.386 53.1217L248.326 55.6983ZM248.08 54.956C248.08 54.7579 248.124 54.567 248.201 54.4014C248.274 54.2425 248.361 54.1404 248.414 54.0878L251.242 56.9162C251.7 56.458 252.08 55.7915 252.08 54.956H248.08ZM248.445 54.0571L242.579 59.6711L245.345 62.5609L251.211 56.9469L248.445 54.0571ZM245.961 61.0461L245.891 59.0441L241.893 59.1839L241.963 61.1859L245.961 61.0461ZM245.295 60.5387L250.027 55.8767L247.22 53.0273L242.488 57.6893L245.295 60.5387ZM250.038 55.8662C250.014 55.8905 249.939 55.9586 249.806 56.021C249.666 56.0869 249.494 56.13 249.31 56.13V52.13C248.411 52.13 247.7 52.5475 247.21 53.0378L250.038 55.8662ZM243.262 62C243.334 62 243.46 62.0111 243.615 62.0696C243.775 62.1302 243.924 62.2263 244.046 62.3478L241.218 65.1762C241.813 65.7718 242.564 66 243.262 66V62ZM244.086 62.3888C244.176 62.4839 244.26 62.6098 244.319 62.7612C244.377 62.9109 244.394 63.0461 244.394 63.146H240.394C240.394 63.8711 240.65 64.576 241.178 65.1352L244.086 62.3888ZM244.394 63.146V55.054H240.394V63.146H244.394ZM244.394 55.054C244.394 55.1672 244.373 55.3227 244.302 55.4938C244.229 55.667 244.125 55.8057 244.019 55.906L241.273 52.998C240.682 53.5552 240.394 54.2921 240.394 55.054H244.394ZM244.06 55.8662C243.955 55.9712 243.819 56.0638 243.662 56.1255C243.508 56.1857 243.375 56.2 243.29 56.2V52.2C242.556 52.2 241.814 52.4554 241.232 53.0378L244.06 55.8662ZM243.29 56.2C243.206 56.2 243.059 56.1863 242.882 56.1141C242.699 56.039 242.536 55.9217 242.411 55.7807L245.401 53.1233C244.809 52.4573 244.02 52.2 243.29 52.2V56.2ZM242.492 55.8662C242.385 55.76 242.289 55.6211 242.224 55.4568C242.161 55.2957 242.144 55.1532 242.144 55.054H246.144C246.144 54.3286 245.886 53.604 245.32 53.0378L242.492 55.8662ZM242.144 55.054V63.146H246.144V55.054H242.144ZM242.144 63.146C242.144 63.0461 242.161 62.9109 242.219 62.7612C242.277 62.6098 242.362 62.4839 242.452 62.3888L245.36 65.1352C245.888 64.576 246.144 63.8711 246.144 63.146H242.144ZM242.492 62.3478C242.621 62.2188 242.775 62.1229 242.932 62.0645C243.084 62.0087 243.203 62 243.262 62V66C243.946 66 244.711 65.7852 245.32 65.1762L242.492 62.3478ZM255.845 56.538L255.295 58.4611L255.307 58.4644L255.845 56.538ZM256.769 57.014L255.386 58.4593L255.418 58.4899L255.452 58.5192L256.769 57.014ZM256.937 58.26L258.571 59.4134L258.586 59.3916L258.601 59.3694L256.937 58.26ZM256.069 58.442L255.174 60.2309L255.277 60.2823L255.385 60.3216L256.069 58.442ZM255.817 58.274L254.5 59.7792L254.5 59.7792L255.817 58.274ZM255.551 58.092L254.522 59.807L254.557 59.8281L254.593 59.8478L255.551 58.092ZM255.117 57.966L254.725 59.9272L254.779 59.938L254.834 59.9459L255.117 57.966ZM253.479 58.218L252.436 56.5114L252.425 56.518L252.414 56.5247L253.479 58.218ZM252.723 59.058L254.502 59.9716L254.507 59.962L254.512 59.9524L252.723 59.058ZM252.723 61.466L250.934 62.3604L250.948 62.389L250.963 62.417L252.723 61.466ZM253.479 62.292L252.392 63.9711L252.403 63.9783L252.414 63.9853L253.479 62.292ZM255.201 62.558L254.872 60.5852L254.872 60.5852L255.201 62.558ZM255.621 62.432L256.515 64.2209L256.565 64.196L256.613 64.1685L255.621 62.432ZM255.971 62.194L257.237 63.7419L255.971 62.194ZM256.993 62.306L255.449 63.5774L255.468 63.6005L255.488 63.623L256.993 62.306ZM256.797 63.51L257.959 65.1375L257.978 65.124L257.997 65.11L256.797 63.51ZM255.761 63.972L256.276 65.9045L256.29 65.9007L256.305 65.8966L255.761 63.972ZM252.471 63.636L251.395 65.3221L251.406 65.3288L251.416 65.3353L252.471 63.636ZM251.211 62.236L249.416 63.119L249.422 63.1304L249.428 63.1417L251.211 62.236ZM251.239 58.246L249.479 57.2961L249.473 57.3063L251.239 58.246ZM252.541 56.874L253.561 58.5941L253.57 58.589L252.541 56.874ZM254.459 58.37C254.858 58.37 255.127 58.4129 255.295 58.461L256.394 54.615C255.779 54.4391 255.123 54.37 254.459 54.37V58.37ZM255.307 58.4644C255.402 58.491 255.449 58.5128 255.461 58.5189C255.472 58.5246 255.439 58.5092 255.386 58.4593L258.151 55.5687C257.622 55.0629 256.98 54.7784 256.382 54.6116L255.307 58.4644ZM255.452 58.5192C255.384 58.4594 255.287 58.3524 255.211 58.1911C255.134 58.0267 255.105 57.863 255.105 57.728H259.105C259.105 56.8313 258.713 56.0575 258.086 55.5088L255.452 58.5192ZM255.105 57.728C255.105 57.6178 255.122 57.5056 255.156 57.3987C255.189 57.2931 255.233 57.21 255.273 57.1506L258.601 59.3694C258.913 58.9009 259.105 58.342 259.105 57.728H255.105ZM255.303 57.1066C255.428 56.9298 255.613 56.7576 255.856 56.6395C256.092 56.5249 256.306 56.498 256.447 56.498V60.498C257.232 60.498 258.04 60.1649 258.571 59.4134L255.303 57.1066ZM256.447 56.498C256.451 56.498 256.572 56.4968 256.752 56.5624L255.385 60.3216C255.771 60.4619 256.144 60.498 256.447 60.498V56.498ZM256.963 56.6531C257.014 56.6787 257.074 56.7163 257.134 56.7688L254.5 59.7792C254.709 59.9623 254.937 60.1119 255.174 60.2309L256.963 56.6531ZM257.134 56.7688C256.931 56.5918 256.718 56.4503 256.509 56.3362L254.593 59.8478C254.589 59.8457 254.553 59.8256 254.5 59.7792L257.134 56.7688ZM256.58 56.377C256.141 56.1138 255.679 56.026 255.4 55.9861L254.834 59.9459C254.866 59.9505 254.855 59.951 254.815 59.9392C254.78 59.9291 254.667 59.8941 254.522 59.807L256.58 56.377ZM255.509 56.0048C255.297 55.9625 254.997 55.91 254.697 55.91V59.91C254.675 59.91 254.658 59.9095 254.645 59.9089C254.632 59.9083 254.622 59.9076 254.616 59.9071C254.604 59.9062 254.6 59.9055 254.607 59.9065C254.614 59.9073 254.627 59.9092 254.648 59.9127C254.668 59.9162 254.693 59.9209 254.725 59.9272L255.509 56.0048ZM254.697 55.91C253.93 55.91 253.146 56.0776 252.436 56.5114L254.522 59.9246C254.508 59.9331 254.505 59.9312 254.526 59.926C254.548 59.9202 254.602 59.91 254.697 59.91V55.91ZM252.414 56.5247C251.769 56.9306 251.27 57.4908 250.934 58.1636L254.512 59.9524C254.518 59.9392 254.523 59.931 254.526 59.9266C254.529 59.9222 254.531 59.9203 254.531 59.9199C254.532 59.9195 254.532 59.9192 254.533 59.9184C254.534 59.9176 254.537 59.9151 254.543 59.9113L252.414 56.5247ZM250.944 58.1444C250.597 58.8186 250.457 59.5433 250.457 60.262H254.457C254.457 60.066 254.494 59.988 254.502 59.9716L250.944 58.1444ZM250.457 60.262C250.457 60.9799 250.601 61.6939 250.934 62.3604L254.512 60.5716C254.49 60.5288 254.457 60.4401 254.457 60.262H250.457ZM250.963 62.417C251.303 63.0459 251.782 63.5763 252.392 63.9711L254.565 60.6129C254.541 60.5971 254.516 60.5768 254.482 60.515L250.963 62.417ZM252.414 63.9853C253.088 64.4087 253.837 64.6 254.599 64.6V60.6C254.575 60.6 254.559 60.5986 254.549 60.5973C254.539 60.596 254.535 60.5948 254.534 60.5946C254.534 60.5944 254.535 60.5949 254.538 60.5961C254.541 60.5974 254.543 60.5985 254.543 60.5987L252.414 63.9853ZM254.599 64.6C254.905 64.6 255.221 64.5821 255.53 64.5308L254.872 60.5852C254.844 60.5899 254.759 60.6 254.599 60.6V64.6ZM255.53 64.5308C255.829 64.481 256.174 64.3916 256.515 64.2209L254.726 60.6431C254.788 60.6121 254.835 60.5965 254.857 60.5898C254.88 60.5831 254.886 60.5829 254.872 60.5852L255.53 64.5308ZM256.613 64.1685C256.828 64.0459 257.038 63.9049 257.237 63.7419L254.704 60.6461C254.698 60.6511 254.675 60.6688 254.629 60.6955L256.613 64.1685ZM257.237 63.7419C256.833 64.0728 256.449 64.068 256.433 64.068V60.068C256.006 60.068 255.314 60.1472 254.704 60.6461L257.237 63.7419ZM256.433 64.068C256.337 64.068 256.17 64.0522 255.973 63.9682C255.766 63.8803 255.585 63.7428 255.449 63.5774L258.537 61.0346C257.956 60.3294 257.153 60.068 256.433 60.068V64.068ZM255.488 63.623C255.385 63.506 255.304 63.3674 255.252 63.2187C255.201 63.0735 255.189 62.9495 255.189 62.866H259.189C259.189 62.2243 258.989 61.5502 258.498 60.989L255.488 63.623ZM255.189 62.866C255.189 62.5876 255.272 62.343 255.382 62.1621C255.482 61.9977 255.582 61.9211 255.597 61.91L257.997 65.11C258.547 64.6972 259.189 63.9558 259.189 62.866H255.189ZM255.634 61.8825C255.618 61.8943 255.504 61.9661 255.217 62.0474L256.305 65.8966C256.876 65.7352 257.453 65.4991 257.959 65.1375L255.634 61.8825ZM255.245 62.0395C255.015 62.101 254.733 62.14 254.389 62.14V66.14C255.034 66.14 255.667 66.067 256.276 65.9045L255.245 62.0395ZM254.389 62.14C253.964 62.14 253.703 62.0469 253.526 61.9367L251.416 65.3353C252.321 65.8971 253.338 66.14 254.389 66.14V62.14ZM253.546 61.9499C253.315 61.8022 253.135 61.6086 252.994 61.3303L249.428 63.1417C249.884 64.0394 250.544 64.7792 251.395 65.3221L253.546 61.9499ZM253.005 61.353C252.866 61.069 252.777 60.7182 252.777 60.262H248.777C248.777 61.2618 248.977 62.227 249.416 63.119L253.005 61.353ZM252.777 60.262C252.777 59.7693 252.874 59.4301 253.004 59.1857L249.473 57.3063C248.987 58.2192 248.777 59.224 248.777 60.262H252.777ZM252.999 59.1959C253.152 58.9124 253.336 58.7276 253.561 58.5941L251.52 55.1539C250.644 55.6738 249.96 56.4036 249.479 57.2961L252.999 59.1959ZM253.57 58.589C253.788 58.4579 254.065 58.37 254.459 58.37V54.37C253.415 54.37 252.413 54.6181 251.512 55.159L253.57 58.589ZM265.134 56.608L263.72 58.0222L263.72 58.0222L265.134 56.608ZM265.134 63.762L266.548 65.1762L266.569 65.156L266.588 65.1352L265.134 63.762ZM263.93 63.762L262.476 65.1352L262.496 65.156L262.516 65.1762L263.93 63.762ZM263.692 62.46L264.45 60.6089L261.692 59.4809V62.46H263.692ZM264 62.586H266V61.2433L264.758 60.7349L264 62.586ZM263.804 63.034L265.383 64.2619L265.399 64.2413L265.414 64.2204L263.804 63.034ZM263.272 63.538L264.472 65.138L264.472 65.138L263.272 63.538ZM262.474 63.972L263.176 65.8447L263.192 65.8389L263.207 65.8328L262.474 63.972ZM259.744 63.65L258.663 65.3324L258.673 65.3392L258.684 65.346L259.744 63.65ZM258.498 62.278L256.715 63.1837L256.724 63.2008L256.733 63.2177L258.498 62.278ZM258.498 58.246L256.727 57.318L256.721 57.3287L258.498 58.246ZM259.73 56.874L260.804 58.5613L260.815 58.5544L260.826 58.5474L259.73 56.874ZM262.544 56.552L261.865 58.4331L261.865 58.4331L262.544 56.552ZM263.412 57.014L262.193 58.5992L262.207 58.6103L262.222 58.6211L263.412 57.014ZM263.986 57.588L262.322 58.6974L262.353 58.7436L262.386 58.788L263.986 57.588ZM264.196 58.064L264.876 59.9451L266.196 59.4682V58.064H264.196ZM263.692 58.246H261.692V61.0946L264.372 60.1271L263.692 58.246ZM263.93 56.622L265.344 58.0362L265.365 58.016L265.384 57.9952L263.93 56.622ZM262.782 62.292L261.673 60.6279L261.673 60.6279L262.782 62.292ZM263.496 61.452L261.707 60.5576L261.698 60.5766L261.689 60.5958L263.496 61.452ZM263.496 59.058L261.689 59.9142L261.698 59.9334L261.707 59.9524L263.496 59.058ZM262.782 58.218L261.673 59.8821L261.673 59.8821L262.782 58.218ZM260.64 58.218L261.75 59.8821L261.75 59.8821L260.64 58.218ZM259.912 59.058L258.123 58.1636L258.114 58.1826L258.105 58.2018L259.912 59.058ZM259.912 61.452L258.105 62.3082L258.114 62.3274L258.123 62.3464L259.912 61.452ZM260.64 62.292L261.75 60.6279L261.75 60.6279L260.64 62.292ZM264.532 58.37C264.433 58.37 264.291 58.3531 264.129 58.2894C263.965 58.2245 263.826 58.1284 263.72 58.0222L266.548 55.1938C265.982 54.6276 265.258 54.37 264.532 54.37V58.37ZM263.72 58.0222C263.606 57.9083 263.51 57.7643 263.447 57.6018C263.386 57.4438 263.372 57.3092 263.372 57.224H267.372C267.372 56.5128 267.13 55.7751 266.548 55.1938L263.72 58.0222ZM263.372 57.224V63.146H267.372V57.224H263.372ZM263.372 63.146C263.372 63.0461 263.389 62.9109 263.447 62.7612C263.506 62.6098 263.59 62.4839 263.68 62.3888L266.588 65.1352C267.116 64.576 267.372 63.8711 267.372 63.146H263.372ZM263.72 62.3478C263.826 62.2416 263.965 62.1455 264.129 62.0806C264.291 62.0169 264.433 62 264.532 62V66C265.258 66 265.982 65.7424 266.548 65.1762L263.72 62.3478ZM264.532 62C264.631 62 264.774 62.0169 264.935 62.0806C265.099 62.1455 265.238 62.2416 265.344 62.3478L262.516 65.1762C263.082 65.7424 263.807 66 264.532 66V62ZM265.384 62.3888C265.474 62.4839 265.559 62.6098 265.617 62.7612C265.675 62.9109 265.692 63.0461 265.692 63.146H261.692C261.692 63.8711 261.948 64.576 262.476 65.1352L265.384 62.3888ZM265.692 63.146V62.46H261.692V63.146H265.692ZM262.935 64.3111L263.243 64.4371L264.758 60.7349L264.45 60.6089L262.935 64.3111ZM262 62.586C262 62.2934 262.077 62.0834 262.119 61.9874C262.162 61.8879 262.2 61.8398 262.194 61.8476L265.414 64.2204C265.618 63.9444 266 63.3618 266 62.586H262ZM262.226 61.8061C262.232 61.7977 262.196 61.8452 262.072 61.938L264.472 65.138C264.796 64.8948 265.115 64.6063 265.383 64.2619L262.226 61.8061ZM262.072 61.938C262.015 61.9811 261.912 62.0439 261.741 62.1112L263.207 65.8328C263.653 65.6574 264.082 65.4309 264.472 65.138L262.072 61.938ZM261.772 62.0993C261.722 62.1182 261.636 62.14 261.494 62.14V66.14C262.062 66.14 262.63 66.0498 263.176 65.8447L261.772 62.0993ZM261.494 62.14C261.207 62.14 260.994 62.0729 260.804 61.954L258.684 65.346C259.539 65.8805 260.493 66.14 261.494 66.14V62.14ZM260.826 61.9676C260.607 61.8269 260.42 61.6322 260.264 61.3383L256.733 63.2177C257.192 64.0811 257.836 64.8011 258.663 65.3324L260.826 61.9676ZM260.281 61.3723C260.145 61.1034 260.05 60.7495 260.05 60.262H256.05C256.05 61.2865 256.254 62.2766 256.715 63.1837L260.281 61.3723ZM260.05 60.262C260.05 59.76 260.147 59.4126 260.275 59.1633L256.721 57.3287C256.252 58.2368 256.05 59.2334 256.05 60.262H260.05ZM260.27 59.174C260.431 58.8668 260.612 58.6834 260.804 58.5613L258.656 55.1867C257.822 55.7179 257.182 56.4492 256.727 57.318L260.27 59.174ZM260.826 58.5474C261.007 58.4288 261.194 58.37 261.438 58.37V54.37C260.432 54.37 259.48 54.6472 258.635 55.2006L260.826 58.5474ZM261.438 58.37C261.636 58.37 261.772 58.3995 261.865 58.4331L263.224 54.6709C262.645 54.4618 262.043 54.37 261.438 54.37V58.37ZM261.865 58.4331C262.038 58.4957 262.139 58.5575 262.193 58.5992L264.632 55.4288C264.201 55.0972 263.722 54.8509 263.224 54.6709L261.865 58.4331ZM262.222 58.6211C262.281 58.6648 262.315 58.6957 262.331 58.7117C262.346 58.7277 262.34 58.7237 262.322 58.6974L265.65 56.4786C265.357 56.0388 264.982 55.6881 264.603 55.4069L262.222 58.6211ZM262.386 58.788C262.394 58.7985 262.357 58.7525 262.314 58.6543C262.272 58.5583 262.196 58.3517 262.196 58.064H266.196C266.196 57.2745 265.806 56.6807 265.586 56.388L262.386 58.788ZM263.517 56.1829L263.013 56.3649L264.372 60.1271L264.876 59.9451L263.517 56.1829ZM265.692 58.246V57.224H261.692V58.246H265.692ZM265.692 57.224C265.692 57.3232 265.675 57.4657 265.612 57.6268C265.547 57.7911 265.451 57.93 265.344 58.0362L262.516 55.2078C261.95 55.774 261.692 56.4986 261.692 57.224H265.692ZM265.384 57.9952C265.284 58.1015 265.145 58.2054 264.972 58.2779C264.801 58.3495 264.645 58.37 264.532 58.37V54.37C263.77 54.37 263.033 54.6587 262.476 55.2488L265.384 57.9952ZM261.704 64.6C262.465 64.6 263.22 64.4041 263.892 63.9561L261.673 60.6279C261.682 60.6221 261.692 60.6161 261.703 60.6108C261.715 60.6055 261.725 60.602 261.732 60.6C261.748 60.5955 261.742 60.6 261.704 60.6V64.6ZM263.892 63.9561C264.52 63.5375 264.99 62.9699 265.304 62.3082L261.689 60.5958C261.681 60.6113 261.676 60.621 261.672 60.6262C261.669 60.6314 261.667 60.6332 261.668 60.6327C261.668 60.6322 261.67 60.6308 261.671 60.6292C261.673 60.6276 261.674 60.6272 261.673 60.6279L263.892 63.9561ZM265.285 62.3464C265.616 61.6856 265.762 60.9777 265.762 60.262H261.762C261.762 60.4236 261.732 60.5091 261.707 60.5576L265.285 62.3464ZM265.762 60.262C265.762 59.5441 265.618 58.8301 265.285 58.1636L261.707 59.9524C261.729 59.9952 261.762 60.0839 261.762 60.262H265.762ZM265.304 58.2018C264.99 57.5401 264.52 56.9725 263.892 56.5539L261.673 59.8821C261.674 59.8828 261.673 59.8824 261.671 59.8808C261.67 59.8792 261.668 59.8778 261.668 59.8773C261.667 59.8768 261.669 59.8786 261.672 59.8838C261.676 59.889 261.681 59.8987 261.689 59.9142L265.304 58.2018ZM263.892 56.5539C263.22 56.1059 262.465 55.91 261.704 55.91V59.91C261.742 59.91 261.748 59.9145 261.732 59.91C261.725 59.908 261.715 59.9045 261.703 59.8992C261.692 59.8939 261.682 59.8879 261.673 59.8821L263.892 56.5539ZM261.704 55.91C260.943 55.91 260.195 56.111 259.531 56.5539L261.75 59.8821C261.743 59.8866 261.734 59.8919 261.723 59.8969C261.712 59.902 261.702 59.9057 261.693 59.9081C261.675 59.9134 261.675 59.91 261.704 59.91V55.91ZM259.531 56.5539C258.913 56.966 258.445 57.5205 258.123 58.1636L261.701 59.9524C261.72 59.9142 261.734 59.897 261.739 59.8919C261.743 59.8873 261.745 59.8852 261.75 59.8821L259.531 56.5539ZM258.105 58.2018C257.793 58.8596 257.66 59.5598 257.66 60.262H261.66C261.66 60.0682 261.695 59.9657 261.72 59.9142L258.105 58.2018ZM257.66 60.262C257.66 60.9617 257.796 61.6559 258.105 62.3082L261.72 60.5958C261.693 60.5388 261.66 60.4397 261.66 60.262H257.66ZM258.123 62.3464C258.445 62.9895 258.913 63.544 259.531 63.9561L261.75 60.6279C261.745 60.6248 261.743 60.6227 261.739 60.6181C261.734 60.613 261.72 60.5958 261.701 60.5576L258.123 62.3464ZM259.531 63.9561C260.195 64.399 260.943 64.6 261.704 64.6V60.6C261.675 60.6 261.675 60.5966 261.693 60.6019C261.702 60.6043 261.712 60.608 261.723 60.6131C261.734 60.6181 261.743 60.6234 261.75 60.6279L259.531 63.9561ZM268.759 63.762L267.345 62.3478L267.345 62.3478L268.759 63.762ZM267.569 63.762L266.115 65.1352L266.135 65.156L266.155 65.1762L267.569 63.762ZM267.569 53.892L266.155 52.4778L266.155 52.4778L267.569 53.892ZM268.773 53.892L267.278 55.2207L267.317 55.2647L267.359 55.3062L268.773 53.892ZM267.011 63.146C267.011 63.0321 267.032 62.8841 267.097 62.7247C267.163 62.5645 267.255 62.4381 267.345 62.3478L270.173 65.1762C270.725 64.6242 271.011 63.9064 271.011 63.146H267.011ZM267.345 62.3478C267.451 62.2416 267.59 62.1455 267.754 62.0806C267.916 62.0169 268.058 62 268.157 62V66C268.883 66 269.607 65.7424 270.173 65.1762L267.345 62.3478ZM268.157 62C268.271 62 268.422 62.0202 268.586 62.0866C268.751 62.1536 268.885 62.2493 268.983 62.3478L266.155 65.1762C266.705 65.7263 267.417 66 268.157 66V62ZM269.023 62.3888C269.113 62.4839 269.198 62.6098 269.256 62.7612C269.314 62.9109 269.331 63.0461 269.331 63.146H265.331C265.331 63.8711 265.587 64.576 266.115 65.1352L269.023 62.3888ZM269.331 63.146V54.494H265.331V63.146H269.331ZM269.331 54.494C269.331 54.5932 269.314 54.7357 269.251 54.8968C269.186 55.0611 269.09 55.2 268.983 55.3062L266.155 52.4778C265.589 53.044 265.331 53.7686 265.331 54.494H269.331ZM268.983 55.3062C268.893 55.3965 268.767 55.4886 268.607 55.5541C268.447 55.6193 268.299 55.64 268.185 55.64V51.64C267.425 51.64 266.707 51.9258 266.155 52.4778L268.983 55.3062ZM268.185 55.64C268.073 55.64 267.909 55.6197 267.726 55.5413C267.54 55.4612 267.388 55.3443 267.278 55.2207L270.268 52.5633C269.706 51.9315 268.948 51.64 268.185 51.64V55.64ZM267.359 55.3062C267.253 55.2 267.157 55.0611 267.092 54.8968C267.028 54.7357 267.011 54.5932 267.011 54.494H271.011C271.011 53.7686 270.754 53.044 270.187 52.4778L267.359 55.3062ZM267.011 54.494V63.146H271.011V54.494H267.011Z" fill="black"/>
</svg>
