<svg width="271" height="70" viewBox="0 0 271 70" fill="none" xmlns="http://www.w3.org/2000/svg">
<rect x="1.5" y="1" width="268" height="38" rx="19" fill="white" stroke="black" stroke-width="2"/>
<rect x="1.5" y="1" width="138" height="38" rx="19" fill="#FF9F29" stroke="black" stroke-width="2"/>
<path d="M7.868 64.24C6.492 64.24 5.324 63.88 4.364 63.16C3.42 62.424 2.7 61.408 2.204 60.112C1.708 58.8 1.46 57.296 1.46 55.6C1.46 53.888 1.708 52.384 2.204 51.088C2.7 49.792 3.42 48.784 4.364 48.064C5.324 47.328 6.492 46.96 7.868 46.96C9.244 46.96 10.404 47.328 11.348 48.064C12.308 48.784 13.036 49.792 13.532 51.088C14.028 52.384 14.276 53.888 14.276 55.6C14.276 57.296 14.028 58.8 13.532 60.112C13.036 61.408 12.308 62.424 11.348 63.16C10.404 63.88 9.244 64.24 7.868 64.24ZM7.868 61.36C8.54 61.36 9.116 61.152 9.596 60.736C10.092 60.304 10.476 59.664 10.748 58.816C11.02 57.952 11.156 56.88 11.156 55.6C11.156 54.304 11.02 53.232 10.748 52.384C10.476 51.536 10.092 50.904 9.596 50.488C9.116 50.056 8.54 49.84 7.868 49.84C7.212 49.84 6.636 50.056 6.14 50.488C5.644 50.904 5.26 51.536 4.988 52.384C4.716 53.232 4.58 54.304 4.58 55.6C4.58 56.88 4.716 57.952 4.988 58.816C5.26 59.664 5.644 60.304 6.14 60.736C6.636 61.152 7.212 61.36 7.868 61.36ZM28.4228 62.362C28.6654 62.362 28.8661 62.4413 29.0248 62.6C29.1928 62.7493 29.2768 62.9453 29.2768 63.188C29.2768 63.4213 29.1928 63.6173 29.0248 63.776C28.8661 63.9253 28.6654 64 28.4228 64H23.8728C23.6301 64 23.4248 63.9207 23.2568 63.762C23.0981 63.594 23.0188 63.3887 23.0188 63.146V55.054C23.0188 54.8113 23.1028 54.6107 23.2708 54.452C23.4388 54.284 23.6534 54.2 23.9148 54.2C24.1388 54.2 24.3348 54.284 24.5028 54.452C24.6801 54.6107 24.7688 54.8113 24.7688 55.054V62.6L24.4608 62.362H28.4228Z" fill="white"/>
<path d="M4.364 63.16L3.13427 64.7373L3.14903 64.7488L3.164 64.76L4.364 63.16ZM2.204 60.112L0.333208 60.8193L0.336123 60.8269L2.204 60.112ZM2.204 51.088L0.336123 50.3731L0.336123 50.3731L2.204 51.088ZM4.364 48.064L5.5769 49.6542L5.58086 49.6512L4.364 48.064ZM11.348 48.064L10.1183 49.6413L10.133 49.6528L10.148 49.664L11.348 48.064ZM13.532 51.088L15.3999 50.3731L15.3999 50.3731L13.532 51.088ZM13.532 60.112L15.3999 60.8269L15.4028 60.8192L13.532 60.112ZM11.348 63.16L12.5609 64.7502L12.5649 64.7472L11.348 63.16ZM9.596 60.736L10.9059 62.2474L10.9096 62.2442L9.596 60.736ZM10.748 58.816L12.6525 59.4269L12.6557 59.4166L10.748 58.816ZM10.748 52.384L8.84357 52.9949L8.84357 52.9949L10.748 52.384ZM9.596 50.488L8.25807 51.9746L8.28402 51.9979L8.31078 52.0204L9.596 50.488ZM6.14 50.488L7.42523 52.0204L7.43951 52.0084L7.45356 51.9962L6.14 50.488ZM4.988 52.384L3.08357 51.7731L3.08357 51.7731L4.988 52.384ZM4.988 58.816L3.08027 59.4166L3.08357 59.4269L4.988 58.816ZM6.14 60.736L4.82644 62.2442L4.84049 62.2564L4.85478 62.2684L6.14 60.736ZM7.868 62.24C6.85855 62.24 6.12836 61.9833 5.564 61.56L3.164 64.76C4.51964 65.7767 6.12545 66.24 7.868 66.24V62.24ZM5.59373 61.5827C4.98019 61.1044 4.45873 60.408 4.07188 59.3971L0.336123 60.8269C0.941265 62.408 1.85981 63.7436 3.13427 64.7373L5.59373 61.5827ZM4.07478 59.4048C3.68001 58.3605 3.46 57.1035 3.46 55.6H-0.54C-0.54 57.4885 -0.264014 59.2395 0.333223 60.8192L4.07478 59.4048ZM3.46 55.6C3.46 54.0772 3.68098 52.8242 4.07188 51.8029L0.336123 50.3731C-0.26498 51.9438 -0.54 53.6988 -0.54 55.6H3.46ZM4.07188 51.8029C4.45785 50.7943 4.97513 50.1132 5.5769 49.6542L3.1511 46.4738C1.86487 47.4548 0.942147 48.7897 0.336123 50.3731L4.07188 51.8029ZM5.58086 49.6512C6.1445 49.2191 6.86857 48.96 7.868 48.96V44.96C6.11543 44.96 4.5035 45.4369 3.14714 46.4768L5.58086 49.6512ZM7.868 48.96C8.8682 48.96 9.57696 49.2192 10.1183 49.6413L12.5777 46.4867C11.231 45.4368 9.6198 44.96 7.868 44.96V48.96ZM10.148 49.664C10.7616 50.1242 11.2814 50.8028 11.6641 51.8029L15.3999 50.3731C14.7906 48.7812 13.8544 47.4438 12.548 46.464L10.148 49.664ZM11.6641 51.8029C12.055 52.8242 12.276 54.0772 12.276 55.6H16.276C16.276 53.6988 16.001 51.9438 15.3999 50.3731L11.6641 51.8029ZM12.276 55.6C12.276 57.1035 12.056 58.3605 11.6612 59.4048L15.4028 60.8192C16 59.2395 16.276 57.4885 16.276 55.6H12.276ZM11.6641 59.3971C11.2805 60.3996 10.7565 61.0933 10.1311 61.5728L12.5649 64.7472C13.8595 63.7547 14.7915 62.4164 15.3999 60.8269L11.6641 59.3971ZM10.1351 61.5698C9.5932 61.9831 8.87831 62.24 7.868 62.24V66.24C9.60969 66.24 11.2148 65.7769 12.5609 64.7502L10.1351 61.5698ZM7.868 63.36C8.99086 63.36 10.04 62.9978 10.9059 62.2474L8.28614 59.2246C8.19204 59.3062 8.08914 59.36 7.868 59.36V63.36ZM10.9096 62.2442C11.7615 61.5021 12.3071 60.5035 12.6524 59.4269L8.84357 58.2051C8.64492 58.8245 8.42245 59.1059 8.28244 59.2278L10.9096 62.2442ZM12.6557 59.4166C13.0084 58.2964 13.156 57.0067 13.156 55.6H9.156C9.156 56.7533 9.03164 57.6076 8.8403 58.2154L12.6557 59.4166ZM13.156 55.6C13.156 54.1822 13.0094 52.8862 12.6524 51.7731L8.84357 52.9949C9.03055 53.5778 9.156 54.4258 9.156 55.6H13.156ZM12.6524 51.7731C12.3069 50.6958 11.7559 49.6892 10.8812 48.9556L8.31078 52.0204C8.42815 52.1188 8.64512 52.3762 8.84357 52.9949L12.6524 51.7731ZM10.9339 49.0014C10.0706 48.2244 9.01205 47.84 7.868 47.84V51.84C8.06795 51.84 8.16137 51.8876 8.25807 51.9746L10.9339 49.0014ZM7.868 47.84C6.72771 47.84 5.68549 48.2316 4.82644 48.9798L7.45356 51.9962C7.58651 51.8804 7.69629 51.84 7.868 51.84V47.84ZM4.85478 48.9556C3.98015 49.6892 3.42912 50.6958 3.08357 51.7731L6.89243 52.9949C7.09088 52.3762 7.30785 52.1188 7.42523 52.0204L4.85478 48.9556ZM3.08357 51.7731C2.72655 52.8862 2.58 54.1822 2.58 55.6H6.58C6.58 54.4258 6.70545 53.5778 6.89243 52.9949L3.08357 51.7731ZM2.58 55.6C2.58 57.0067 2.72764 58.2964 3.0803 59.4166L6.8957 58.2154C6.70436 57.6076 6.58 56.7533 6.58 55.6H2.58ZM3.08357 59.4269C3.42892 60.5035 3.97445 61.5021 4.82644 62.2442L7.45356 59.2278C7.31355 59.1059 7.09108 58.8245 6.89243 58.2051L3.08357 59.4269ZM4.85478 62.2684C5.71615 62.9908 6.74882 63.36 7.868 63.36V59.36C7.67518 59.36 7.55585 59.3132 7.42523 59.2036L4.85478 62.2684ZM29.0248 62.6L27.6105 64.0142L27.6521 64.0558L27.696 64.0948L29.0248 62.6ZM29.0248 63.776L30.3955 65.2324L30.398 65.23L29.0248 63.776ZM23.2568 63.762L21.8027 65.1352L21.842 65.1768L21.8835 65.216L23.2568 63.762ZM23.2708 54.452L24.644 55.906L24.6648 55.8864L24.685 55.8662L23.2708 54.452ZM24.5028 54.452L23.0885 55.8662L23.1278 55.9055L23.1692 55.9425L24.5028 54.452ZM24.7688 62.6L23.5459 64.1826L26.7688 66.673V62.6H24.7688ZM24.4608 62.362V60.362H18.6016L23.2379 63.9446L24.4608 62.362ZM28.4228 64.362C28.3236 64.362 28.1811 64.3451 28.0199 64.2814C27.8557 64.2165 27.7168 64.1204 27.6105 64.0142L30.439 61.1858C29.8728 60.6196 29.1482 60.362 28.4228 60.362V64.362ZM27.696 64.0948C27.5724 63.985 27.4555 63.8337 27.3755 63.6468C27.297 63.4638 27.2768 63.3003 27.2768 63.188H31.2768C31.2768 62.4253 30.9853 61.6668 30.3535 61.1052L27.696 64.0948ZM27.2768 63.188C27.2768 63.0595 27.3011 62.8957 27.3755 62.7222C27.45 62.5482 27.5534 62.4147 27.6515 62.322L30.398 65.23C30.9704 64.6894 31.2768 63.9655 31.2768 63.188H27.2768ZM27.654 62.3196C27.7655 62.2147 27.9036 62.1269 28.0578 62.0696C28.2083 62.0136 28.3374 62 28.4228 62V66C29.112 66 29.8225 65.7717 30.3955 65.2324L27.654 62.3196ZM28.4228 62H23.8728V66H28.4228V62ZM23.8728 62C23.9727 62 24.1079 62.0171 24.2575 62.0749C24.409 62.1334 24.5348 62.2181 24.63 62.308L21.8835 65.216C22.4428 65.7442 23.1477 66 23.8728 66V62ZM24.7108 62.3888C24.8007 62.4839 24.8853 62.6098 24.9438 62.7612C25.0017 62.9109 25.0188 63.0461 25.0188 63.146H21.0188C21.0188 63.8711 21.2745 64.576 21.8027 65.1352L24.7108 62.3888ZM25.0188 63.146V55.054H21.0188V63.146H25.0188ZM25.0188 55.054C25.0188 55.1672 24.9982 55.3227 24.9266 55.4938C24.8541 55.667 24.7502 55.8057 24.644 55.906L21.8975 52.998C21.3075 53.5552 21.0188 54.2921 21.0188 55.054H25.0188ZM24.685 55.8662C24.58 55.9712 24.4441 56.0638 24.2865 56.1255C24.1327 56.1857 24.0004 56.2 23.9148 56.2V52.2C23.1812 52.2 22.4389 52.4554 21.8565 53.0378L24.685 55.8662ZM23.9148 56.2C23.7698 56.2 23.6053 56.1713 23.4419 56.1013C23.2808 56.0322 23.1639 55.9416 23.0885 55.8662L25.917 53.0378C25.3991 52.52 24.7039 52.2 23.9148 52.2V56.2ZM23.1692 55.9425C23.0641 55.8485 22.9529 55.7109 22.8729 55.5298C22.7933 55.3497 22.7688 55.1813 22.7688 55.054H26.7688C26.7688 54.2552 26.4472 53.5081 25.8363 52.9615L23.1692 55.9425ZM22.7688 55.054V62.6H26.7688V55.054H22.7688ZM25.9916 61.0174L25.6836 60.7794L23.2379 63.9446L23.5459 64.1826L25.9916 61.0174ZM24.4608 64.362H28.4228V60.362H24.4608V64.362Z" fill="black"/>
<path d="M216.188 60.616C216.332 60.616 216.484 60.64 216.644 60.688C216.82 60.736 217.012 60.832 217.22 60.976C217.492 61.184 217.812 61.368 218.18 61.528C218.564 61.688 219.004 61.768 219.5 61.768C219.996 61.768 220.46 61.648 220.892 61.408C221.34 61.152 221.708 60.8 221.996 60.352C222.284 59.888 222.428 59.336 222.428 58.696C222.428 58.088 222.3 57.584 222.044 57.184C221.804 56.784 221.476 56.48 221.06 56.272C220.66 56.064 220.228 55.96 219.764 55.96C219.412 55.96 219.116 55.992 218.876 56.056C218.652 56.12 218.428 56.192 218.204 56.272C217.996 56.336 217.748 56.368 217.46 56.368C217.092 56.368 216.804 56.24 216.596 55.984C216.404 55.728 216.308 55.424 216.308 55.072C216.308 54.848 216.348 54.648 216.428 54.472C216.524 54.296 216.66 54.104 216.836 53.896L221.06 49.408L221.708 49.96H215.804C215.42 49.96 215.1 49.832 214.844 49.576C214.588 49.32 214.46 49 214.46 48.616C214.46 48.248 214.588 47.944 214.844 47.704C215.1 47.448 215.42 47.32 215.804 47.32H223.148C223.644 47.32 224.012 47.456 224.252 47.728C224.508 48 224.636 48.344 224.636 48.76C224.636 48.968 224.58 49.176 224.468 49.384C224.356 49.576 224.22 49.752 224.06 49.912L219.812 54.472L219.164 53.656C219.34 53.576 219.58 53.504 219.884 53.44C220.204 53.376 220.468 53.344 220.676 53.344C221.62 53.344 222.436 53.592 223.124 54.088C223.828 54.568 224.364 55.2 224.732 55.984C225.116 56.752 225.308 57.584 225.308 58.48C225.308 59.664 225.044 60.688 224.516 61.552C223.988 62.416 223.244 63.08 222.284 63.544C221.324 64.008 220.204 64.24 218.924 64.24C218.332 64.24 217.748 64.168 217.172 64.024C216.596 63.88 216.1 63.688 215.684 63.448C215.332 63.256 215.092 63.048 214.964 62.824C214.852 62.584 214.796 62.36 214.796 62.152C214.796 61.784 214.924 61.44 215.18 61.12C215.452 60.784 215.788 60.616 216.188 60.616ZM239.571 62.362C239.814 62.362 240.015 62.4413 240.173 62.6C240.341 62.7493 240.425 62.9453 240.425 63.188C240.425 63.4213 240.341 63.6173 240.173 63.776C240.015 63.9253 239.814 64 239.571 64H235.021C234.779 64 234.573 63.9207 234.405 63.762C234.247 63.594 234.167 63.3887 234.167 63.146V55.054C234.167 54.8113 234.251 54.6107 234.419 54.452C234.587 54.284 234.802 54.2 235.063 54.2C235.287 54.2 235.483 54.284 235.651 54.452C235.829 54.6107 235.917 54.8113 235.917 55.054V62.6L235.609 62.362H239.571Z" fill="white"/>
<path d="M216.644 60.688L216.069 62.6037L216.093 62.6109L216.118 62.6175L216.644 60.688ZM217.22 60.976L218.435 59.3873L218.397 59.3585L218.358 59.3316L217.22 60.976ZM218.18 61.528L217.383 63.3621L217.397 63.3683L217.411 63.3742L218.18 61.528ZM220.892 61.408L221.863 63.1563L221.874 63.1505L221.884 63.1445L220.892 61.408ZM221.996 60.352L223.678 61.4335L223.687 61.4202L223.695 61.4067L221.996 60.352ZM222.044 57.184L220.329 58.213L220.344 58.2378L220.359 58.2621L222.044 57.184ZM221.06 56.272L220.137 58.0464L220.151 58.0538L220.166 58.0609L221.06 56.272ZM218.876 56.056L218.361 54.1235L218.344 54.1281L218.327 54.133L218.876 56.056ZM218.204 56.272L218.792 58.1836L218.835 58.1705L218.877 58.1555L218.204 56.272ZM216.596 55.984L214.996 57.184L215.019 57.2151L215.044 57.2452L216.596 55.984ZM216.428 54.472L214.672 53.5143L214.637 53.5782L214.607 53.6444L216.428 54.472ZM216.836 53.896L215.38 52.5253L215.343 52.5638L215.309 52.6041L216.836 53.896ZM221.06 49.408L222.357 47.8855L220.908 46.6513L219.604 48.0373L221.06 49.408ZM221.708 49.96V51.96H227.14L223.005 48.4375L221.708 49.96ZM214.844 49.576L213.43 50.9902L213.43 50.9902L214.844 49.576ZM214.844 47.704L216.212 49.1631L216.235 49.141L216.258 49.1182L214.844 47.704ZM224.252 47.728L222.752 49.0512L222.774 49.0753L222.796 49.0987L224.252 47.728ZM224.468 49.384L226.196 50.3917L226.213 50.3623L226.229 50.3322L224.468 49.384ZM224.06 49.912L222.646 48.4978L222.621 48.5228L222.597 48.5487L224.06 49.912ZM219.812 54.472L218.246 55.7158L219.691 57.5359L221.275 55.8353L219.812 54.472ZM219.164 53.656L218.336 51.8353L216.006 52.8947L217.598 54.8998L219.164 53.656ZM219.884 53.44L219.492 51.4788L219.482 51.4808L219.472 51.4829L219.884 53.44ZM223.124 54.088L221.954 55.7104L221.976 55.7257L221.997 55.7405L223.124 54.088ZM224.732 55.984L222.922 56.8338L222.932 56.8563L222.943 56.8784L224.732 55.984ZM224.516 61.552L222.809 60.5091L222.809 60.5091L224.516 61.552ZM222.284 63.544L221.414 61.7433L221.414 61.7433L222.284 63.544ZM217.172 64.024L217.657 62.0837L217.657 62.0837L217.172 64.024ZM215.684 63.448L216.683 61.7156L216.663 61.7037L216.642 61.6922L215.684 63.448ZM214.964 62.824L213.152 63.6698L213.187 63.7446L213.228 63.8163L214.964 62.824ZM215.18 61.12L213.625 59.8616L213.618 59.8706L215.18 61.12ZM216.188 62.616C216.109 62.616 216.067 62.6029 216.069 62.6037L217.219 58.7723C216.901 58.6771 216.555 58.616 216.188 58.616V62.616ZM216.118 62.6175C216.088 62.6093 216.065 62.6013 216.05 62.5955C216.035 62.5897 216.027 62.5856 216.026 62.5849C216.024 62.5841 216.028 62.5861 216.038 62.592C216.048 62.5979 216.062 62.607 216.082 62.6204L218.358 59.3316C218.031 59.1047 217.632 58.8843 217.17 58.7585L216.118 62.6175ZM216.005 62.5647C216.426 62.8863 216.891 63.1483 217.383 63.3621L218.977 59.6939C218.733 59.5877 218.558 59.4817 218.435 59.3873L216.005 62.5647ZM217.411 63.3742C218.081 63.6533 218.79 63.768 219.5 63.768V59.768C219.218 59.768 219.047 59.7227 218.949 59.6818L217.411 63.3742ZM219.5 63.768C220.335 63.768 221.133 63.562 221.863 63.1563L219.921 59.6597C219.787 59.734 219.657 59.768 219.5 59.768V63.768ZM221.884 63.1445C222.621 62.7236 223.222 62.1431 223.678 61.4335L220.314 59.2705C220.194 59.4569 220.059 59.5804 219.9 59.6715L221.884 63.1445ZM223.695 61.4067C224.212 60.575 224.428 59.6437 224.428 58.696H220.428C220.428 59.0283 220.356 59.201 220.297 59.2973L223.695 61.4067ZM224.428 58.696C224.428 57.8119 224.241 56.9067 223.729 56.1059L220.359 58.2621C220.362 58.2654 220.377 58.2903 220.394 58.3543C220.41 58.421 220.428 58.5308 220.428 58.696H224.428ZM223.759 56.155C223.324 55.4299 222.712 54.8618 221.954 54.4831L220.166 58.0609C220.24 58.0982 220.284 58.1381 220.329 58.213L223.759 56.155ZM221.983 54.4976C221.289 54.137 220.54 53.96 219.764 53.96V57.96C219.916 57.96 220.031 57.991 220.137 58.0464L221.983 54.4976ZM219.764 53.96C219.304 53.96 218.822 54.0004 218.361 54.1235L219.391 57.9885C219.41 57.9836 219.52 57.96 219.764 57.96V53.96ZM218.327 54.133C218.06 54.2091 217.795 54.2943 217.531 54.3885L218.877 58.1555C219.061 58.0897 219.244 58.0309 219.425 57.979L218.327 54.133ZM217.616 54.3604C217.635 54.3546 217.634 54.3569 217.606 54.3604C217.579 54.364 217.531 54.368 217.46 54.368V58.368C217.887 58.368 218.343 58.3216 218.792 58.1836L217.616 54.3604ZM217.46 54.368C217.509 54.368 217.629 54.3773 217.78 54.4444C217.938 54.5143 218.063 54.6181 218.148 54.7228L215.044 57.2452C215.679 58.0266 216.569 58.368 217.46 58.368V54.368ZM218.196 54.784C218.235 54.8358 218.267 54.8978 218.287 54.9617C218.307 55.0237 218.308 55.0648 218.308 55.072H214.308C214.308 55.8111 214.518 56.547 214.996 57.184L218.196 54.784ZM218.308 55.072C218.308 55.0885 218.304 55.1776 218.249 55.2996L214.607 53.6444C214.392 54.1184 214.308 54.6075 214.308 55.072H218.308ZM218.184 55.4297C218.197 55.4062 218.245 55.3266 218.363 55.1879L215.309 52.6041C215.075 52.8814 214.851 53.1858 214.672 53.5143L218.184 55.4297ZM218.292 55.2667L222.516 50.7787L219.604 48.0373L215.38 52.5253L218.292 55.2667ZM219.763 50.9305L220.411 51.4825L223.005 48.4375L222.357 47.8855L219.763 50.9305ZM221.708 47.96H215.804V51.96H221.708V47.96ZM215.804 47.96C215.837 47.96 215.917 47.9663 216.019 48.007C216.123 48.0487 216.205 48.1081 216.258 48.1618L213.43 50.9902C214.085 51.6458 214.925 51.96 215.804 51.96V47.96ZM216.258 48.1618C216.312 48.2155 216.371 48.2971 216.413 48.4012C216.454 48.503 216.46 48.5826 216.46 48.616H212.46C212.46 49.4947 212.774 50.3346 213.43 50.9902L216.258 48.1618ZM216.46 48.616C216.46 48.6677 216.45 48.7675 216.399 48.8881C216.348 49.0109 216.275 49.1037 216.212 49.1631L213.476 46.2449C212.795 46.8832 212.46 47.7255 212.46 48.616H216.46ZM216.258 49.1182C216.205 49.1719 216.123 49.2313 216.019 49.273C215.917 49.3137 215.837 49.32 215.804 49.32V45.32C214.925 45.32 214.085 45.6342 213.43 46.2898L216.258 49.1182ZM215.804 49.32H223.148V45.32H215.804V49.32ZM223.148 49.32C223.219 49.32 223.191 49.3305 223.103 49.298C223.002 49.2609 222.869 49.1833 222.752 49.0512L225.752 46.4048C225.007 45.5611 223.998 45.32 223.148 45.32V49.32ZM222.796 49.0987C222.744 49.044 222.696 48.97 222.666 48.8875C222.636 48.8086 222.636 48.7587 222.636 48.76H226.636C226.636 47.8974 226.354 47.0436 225.708 46.3573L222.796 49.0987ZM222.636 48.76C222.636 48.5944 222.684 48.4792 222.707 48.4358L226.229 50.3322C226.476 49.8728 226.636 49.3416 226.636 48.76H222.636ZM222.74 48.3763C222.717 48.4172 222.687 48.4571 222.646 48.4978L225.474 51.3262C225.753 51.0469 225.995 50.7348 226.196 50.3917L222.74 48.3763ZM222.597 48.5487L218.349 53.1087L221.275 55.8353L225.523 51.2753L222.597 48.5487ZM221.378 53.2282L220.73 52.4122L217.598 54.8998L218.246 55.7158L221.378 53.2282ZM219.992 55.4767C219.978 55.4831 219.993 55.4749 220.051 55.4577C220.106 55.441 220.186 55.4202 220.296 55.3971L219.472 51.4829C219.1 51.5612 218.701 51.6696 218.336 51.8353L219.992 55.4767ZM220.276 55.4012C220.531 55.3502 220.652 55.344 220.676 55.344V51.344C220.284 51.344 219.877 51.4018 219.492 51.4788L220.276 55.4012ZM220.676 55.344C221.25 55.344 221.645 55.4874 221.954 55.7104L224.294 52.4656C223.227 51.6966 221.99 51.344 220.676 51.344V55.344ZM221.997 55.7405C222.401 56.0154 222.703 56.3681 222.922 56.8338L226.542 55.1342C226.025 54.0319 225.255 53.1206 224.251 52.4355L221.997 55.7405ZM222.943 56.8784C223.182 57.3565 223.308 57.8806 223.308 58.48H227.308C227.308 57.2874 227.05 56.1475 226.521 55.0896L222.943 56.8784ZM223.308 58.48C223.308 59.3592 223.115 60.009 222.809 60.5091L226.223 62.5949C226.973 61.367 227.308 59.9688 227.308 58.48H223.308ZM222.809 60.5091C222.493 61.0277 222.047 61.4371 221.414 61.7433L223.154 65.3447C224.441 64.7229 225.483 63.8043 226.223 62.5949L222.809 60.5091ZM221.414 61.7433C220.774 62.0524 219.962 62.24 218.924 62.24V66.24C220.446 66.24 221.874 65.9636 223.154 65.3447L221.414 61.7433ZM218.924 62.24C218.496 62.24 218.075 62.1882 217.657 62.0837L216.687 65.9643C217.421 66.1478 218.168 66.24 218.924 66.24V62.24ZM217.657 62.0837C217.221 61.9746 216.906 61.8439 216.683 61.7156L214.685 65.1804C215.294 65.5321 215.971 65.7854 216.687 65.9643L217.657 62.0837ZM216.642 61.6922C216.56 61.6478 216.538 61.6261 216.55 61.6366C216.562 61.6475 216.63 61.7086 216.7 61.8317L213.228 63.8163C213.615 64.4937 214.214 64.9246 214.726 65.2038L216.642 61.6922ZM216.776 61.9782C216.755 61.9331 216.796 61.9993 216.796 62.152H212.796C212.796 62.7207 212.949 63.2349 213.152 63.6698L216.776 61.9782ZM216.796 62.152C216.796 62.2055 216.786 62.2637 216.766 62.3155C216.748 62.3647 216.731 62.3824 216.742 62.3694L213.618 59.8706C213.113 60.5025 212.796 61.278 212.796 62.152H216.796ZM216.734 62.3784C216.718 62.399 216.654 62.4693 216.53 62.5309C216.403 62.5946 216.278 62.616 216.188 62.616V58.616C215.131 58.616 214.242 59.0999 213.626 59.8616L216.734 62.3784ZM240.173 62.6L238.759 64.0142L238.801 64.0558L238.844 64.0948L240.173 62.6ZM240.173 63.776L241.544 65.2324L241.546 65.23L240.173 63.776ZM234.405 63.762L232.951 65.1352L232.99 65.1768L233.032 65.216L234.405 63.762ZM234.419 54.452L235.792 55.906L235.813 55.8864L235.833 55.8662L234.419 54.452ZM235.651 54.452L234.237 55.8662L234.276 55.9055L234.318 55.9425L235.651 54.452ZM235.917 62.6L234.694 64.1826L237.917 66.673V62.6H235.917ZM235.609 62.362V60.362H229.75L234.386 63.9446L235.609 62.362ZM239.571 64.362C239.472 64.362 239.33 64.3451 239.168 64.2814C239.004 64.2165 238.865 64.1204 238.759 64.0142L241.587 61.1858C241.021 60.6196 240.297 60.362 239.571 60.362V64.362ZM238.844 64.0948C238.721 63.985 238.604 63.8337 238.524 63.6468C238.445 63.4638 238.425 63.3003 238.425 63.188H242.425C242.425 62.4253 242.134 61.6668 241.502 61.1052L238.844 64.0948ZM238.425 63.188C238.425 63.0595 238.45 62.8957 238.524 62.7222C238.598 62.5482 238.702 62.4147 238.8 62.322L241.546 65.23C242.119 64.6894 242.425 63.9655 242.425 63.188H238.425ZM238.802 62.3196C238.914 62.2147 239.052 62.1269 239.206 62.0696C239.357 62.0136 239.486 62 239.571 62V66C240.26 66 240.971 65.7717 241.544 65.2324L238.802 62.3196ZM239.571 62H235.021V66H239.571V62ZM235.021 62C235.121 62 235.256 62.0171 235.406 62.0749C235.557 62.1334 235.683 62.2181 235.778 62.308L233.032 65.216C233.591 65.7442 234.296 66 235.021 66V62ZM235.859 62.3888C235.949 62.4839 236.034 62.6098 236.092 62.7612C236.15 62.9109 236.167 63.0461 236.167 63.146H232.167C232.167 63.8711 232.423 64.576 232.951 65.1352L235.859 62.3888ZM236.167 63.146V55.054H232.167V63.146H236.167ZM236.167 55.054C236.167 55.1672 236.147 55.3227 236.075 55.4938C236.003 55.667 235.899 55.8057 235.792 55.906L233.046 52.998C232.456 53.5552 232.167 54.2921 232.167 55.054H236.167ZM235.833 55.8662C235.728 55.9712 235.593 56.0638 235.435 56.1255C235.281 56.1857 235.149 56.2 235.063 56.2V52.2C234.33 52.2 233.587 52.4554 233.005 53.0378L235.833 55.8662ZM235.063 56.2C234.918 56.2 234.754 56.1713 234.59 56.1013C234.429 56.0322 234.312 55.9416 234.237 55.8662L237.065 53.0378C236.548 52.52 235.852 52.2 235.063 52.2V56.2ZM234.318 55.9425C234.213 55.8485 234.101 55.7109 234.021 55.5298C233.942 55.3497 233.917 55.1813 233.917 55.054H237.917C237.917 54.2552 237.596 53.5081 236.985 52.9615L234.318 55.9425ZM233.917 55.054V62.6H237.917V55.054H233.917ZM237.14 61.0174L236.832 60.7794L234.386 63.9446L234.694 64.1826L237.14 61.0174ZM235.609 64.362H239.571V60.362H235.609V64.362Z" fill="black"/>
</svg>
