<svg width="573" height="80" viewBox="0 0 573 80" fill="none" xmlns="http://www.w3.org/2000/svg">
<rect width="573" height="80" rx="30" fill="#A7A7A7"/>
<path d="M73.375 56.375L65.2187 48.2187M54.625 28.25C59.8027 28.25 64 32.4473 64 37.625M69.625 37.625C69.625 45.9093 62.9093 52.625 54.625 52.625C46.3407 52.625 39.625 45.9093 39.625 37.625C39.625 29.3407 46.3407 22.625 54.625 22.625C62.9093 22.625 69.625 29.3407 69.625 37.625Z" stroke="black" stroke-width="2" stroke-linecap="round" stroke-linejoin="round"/>
<path d="M108.968 26.8C111.272 26.8 112.988 27.34 114.116 28.42C115.244 29.5 115.808 31.096 115.808 33.208C115.808 34.336 115.532 35.332 114.98 36.196C114.428 37.036 113.612 37.696 112.532 38.176C111.452 38.632 110.12 38.86 108.536 38.86L108.68 37.24C109.424 37.24 110.276 37.348 111.236 37.564C112.196 37.756 113.12 38.116 114.008 38.644C114.92 39.148 115.664 39.868 116.24 40.804C116.84 41.716 117.14 42.892 117.14 44.332C117.14 45.916 116.876 47.212 116.348 48.22C115.844 49.228 115.172 50.008 114.332 50.56C113.492 51.112 112.592 51.496 111.632 51.712C110.672 51.904 109.748 52 108.86 52H99.896C99.272 52 98.744 51.796 98.312 51.388C97.904 50.956 97.7 50.428 97.7 49.804V28.996C97.7 28.372 97.904 27.856 98.312 27.448C98.744 27.016 99.272 26.8 99.896 26.8H108.968ZM108.32 31.048H101.912L102.38 30.472V36.988L101.948 36.664H108.428C109.124 36.664 109.748 36.436 110.3 35.98C110.852 35.524 111.128 34.864 111.128 34C111.128 32.968 110.864 32.224 110.336 31.768C109.832 31.288 109.16 31.048 108.32 31.048ZM108.608 40.912H102.056L102.38 40.624V48.22L102.02 47.86H108.86C109.964 47.86 110.84 47.572 111.488 46.996C112.136 46.396 112.46 45.508 112.46 44.332C112.46 43.252 112.244 42.472 111.812 41.992C111.38 41.512 110.864 41.212 110.264 41.092C109.664 40.972 109.112 40.912 108.608 40.912ZM135.222 32.74C135.846 32.74 136.362 32.956 136.77 33.388C137.178 33.796 137.382 34.312 137.382 34.936V44.08C137.382 46.624 136.674 48.64 135.258 50.128C133.842 51.616 131.802 52.36 129.138 52.36C126.474 52.36 124.434 51.616 123.018 50.128C121.626 48.64 120.93 46.624 120.93 44.08V34.936C120.93 34.312 121.134 33.796 121.542 33.388C121.95 32.956 122.466 32.74 123.09 32.74C123.714 32.74 124.23 32.956 124.638 33.388C125.046 33.796 125.25 34.312 125.25 34.936V44.08C125.25 45.544 125.574 46.636 126.222 47.356C126.87 48.052 127.842 48.4 129.138 48.4C130.458 48.4 131.442 48.052 132.09 47.356C132.738 46.636 133.062 45.544 133.062 44.08V34.936C133.062 34.312 133.266 33.796 133.674 33.388C134.082 32.956 134.598 32.74 135.222 32.74ZM140.943 49.012C140.703 48.676 140.595 48.244 140.619 47.716C140.643 47.188 140.955 46.732 141.555 46.348C141.939 46.108 142.347 46.012 142.779 46.06C143.211 46.084 143.631 46.3 144.039 46.708C144.735 47.404 145.467 47.944 146.235 48.328C147.003 48.712 147.963 48.904 149.115 48.904C149.475 48.88 149.871 48.832 150.303 48.76C150.735 48.664 151.107 48.472 151.419 48.184C151.755 47.872 151.923 47.404 151.923 46.78C151.923 46.252 151.743 45.832 151.383 45.52C151.023 45.208 150.543 44.944 149.943 44.728C149.367 44.512 148.719 44.308 147.999 44.116C147.255 43.9 146.487 43.66 145.695 43.396C144.927 43.132 144.219 42.796 143.571 42.388C142.923 41.956 142.395 41.392 141.987 40.696C141.579 40 141.375 39.124 141.375 38.068C141.375 36.868 141.711 35.848 142.383 35.008C143.055 34.168 143.919 33.52 144.975 33.064C146.055 32.608 147.183 32.38 148.359 32.38C149.103 32.38 149.883 32.476 150.699 32.668C151.515 32.836 152.295 33.124 153.039 33.532C153.783 33.916 154.407 34.432 154.911 35.08C155.175 35.44 155.331 35.872 155.379 36.376C155.427 36.88 155.199 37.336 154.695 37.744C154.335 38.032 153.915 38.164 153.435 38.14C152.955 38.092 152.559 37.924 152.247 37.636C151.839 37.108 151.287 36.688 150.591 36.376C149.919 36.064 149.139 35.908 148.251 35.908C147.891 35.908 147.495 35.956 147.063 36.052C146.655 36.124 146.295 36.304 145.983 36.592C145.671 36.856 145.515 37.288 145.515 37.888C145.515 38.44 145.695 38.884 146.055 39.22C146.415 39.532 146.895 39.796 147.495 40.012C148.119 40.204 148.779 40.396 149.475 40.588C150.195 40.78 150.927 41.008 151.671 41.272C152.415 41.536 153.099 41.884 153.723 42.316C154.347 42.748 154.851 43.312 155.235 44.008C155.619 44.68 155.811 45.544 155.811 46.6C155.811 47.824 155.451 48.868 154.731 49.732C154.011 50.596 153.111 51.256 152.031 51.712C150.951 52.144 149.847 52.36 148.719 52.36C147.303 52.36 145.887 52.12 144.471 51.64C143.055 51.136 141.879 50.26 140.943 49.012ZM167.994 32.38C169.362 32.38 170.55 32.524 171.558 32.812C172.59 33.1 173.382 33.508 173.934 34.036C174.51 34.54 174.798 35.152 174.798 35.872C174.798 36.352 174.654 36.808 174.366 37.24C174.078 37.648 173.658 37.852 173.106 37.852C172.722 37.852 172.398 37.804 172.134 37.708C171.894 37.588 171.678 37.444 171.486 37.276C171.294 37.108 171.066 36.952 170.802 36.808C170.562 36.664 170.19 36.556 169.686 36.484C169.206 36.388 168.846 36.34 168.606 36.34C167.382 36.34 166.338 36.604 165.474 37.132C164.634 37.66 163.986 38.38 163.53 39.292C163.074 40.18 162.846 41.212 162.846 42.388C162.846 43.54 163.074 44.572 163.53 45.484C164.01 46.372 164.658 47.08 165.474 47.608C166.314 48.136 167.274 48.4 168.354 48.4C168.954 48.4 169.47 48.364 169.902 48.292C170.334 48.22 170.694 48.112 170.982 47.968C171.318 47.776 171.618 47.572 171.882 47.356C172.146 47.14 172.542 47.032 173.07 47.032C173.694 47.032 174.174 47.236 174.51 47.644C174.846 48.028 175.014 48.508 175.014 49.084C175.014 49.684 174.678 50.236 174.006 50.74C173.334 51.22 172.446 51.616 171.342 51.928C170.262 52.216 169.086 52.36 167.814 52.36C165.918 52.36 164.274 51.928 162.882 51.064C161.49 50.176 160.41 48.976 159.642 47.464C158.898 45.952 158.526 44.26 158.526 42.388C158.526 40.42 158.922 38.692 159.714 37.204C160.53 35.692 161.646 34.516 163.062 33.676C164.502 32.812 166.146 32.38 167.994 32.38ZM193.897 32.38C194.521 32.38 195.037 32.584 195.445 32.992C195.853 33.4 196.057 33.928 196.057 34.576V49.804C196.057 50.428 195.853 50.956 195.445 51.388C195.037 51.796 194.521 52 193.897 52C193.273 52 192.757 51.796 192.349 51.388C191.941 50.956 191.737 50.428 191.737 49.804V48.04L192.529 48.364C192.529 48.676 192.361 49.06 192.025 49.516C191.689 49.948 191.233 50.38 190.657 50.812C190.081 51.244 189.397 51.616 188.605 51.928C187.837 52.216 186.997 52.36 186.085 52.36C184.429 52.36 182.929 51.94 181.585 51.1C180.241 50.236 179.173 49.06 178.381 47.572C177.613 46.06 177.229 44.332 177.229 42.388C177.229 40.42 177.613 38.692 178.381 37.204C179.173 35.692 180.229 34.516 181.549 33.676C182.869 32.812 184.333 32.38 185.941 32.38C186.973 32.38 187.921 32.536 188.785 32.848C189.649 33.16 190.393 33.556 191.017 34.036C191.665 34.516 192.157 35.008 192.493 35.512C192.853 35.992 193.033 36.4 193.033 36.736L191.737 37.204V34.576C191.737 33.952 191.941 33.436 192.349 33.028C192.757 32.596 193.273 32.38 193.897 32.38ZM186.625 48.4C187.681 48.4 188.605 48.136 189.397 47.608C190.189 47.08 190.801 46.36 191.233 45.448C191.689 44.536 191.917 43.516 191.917 42.388C191.917 41.236 191.689 40.204 191.233 39.292C190.801 38.38 190.189 37.66 189.397 37.132C188.605 36.604 187.681 36.34 186.625 36.34C185.593 36.34 184.681 36.604 183.889 37.132C183.097 37.66 182.473 38.38 182.017 39.292C181.585 40.204 181.369 41.236 181.369 42.388C181.369 43.516 181.585 44.536 182.017 45.448C182.473 46.36 183.097 47.08 183.889 47.608C184.681 48.136 185.593 48.4 186.625 48.4ZM202.895 52C202.271 52 201.755 51.796 201.347 51.388C200.939 50.956 200.735 50.428 200.735 49.804V34.936C200.735 34.312 200.939 33.796 201.347 33.388C201.755 32.956 202.271 32.74 202.895 32.74C203.519 32.74 204.035 32.956 204.443 33.388C204.851 33.796 205.055 34.312 205.055 34.936V38.32L204.803 35.908C205.067 35.332 205.403 34.828 205.811 34.396C206.243 33.94 206.723 33.568 207.251 33.28C207.779 32.968 208.343 32.74 208.943 32.596C209.543 32.452 210.143 32.38 210.743 32.38C211.463 32.38 212.063 32.584 212.543 32.992C213.047 33.4 213.299 33.88 213.299 34.432C213.299 35.224 213.095 35.8 212.687 36.16C212.279 36.496 211.835 36.664 211.355 36.664C210.899 36.664 210.479 36.58 210.095 36.412C209.735 36.244 209.315 36.16 208.835 36.16C208.403 36.16 207.959 36.268 207.503 36.484C207.071 36.676 206.663 36.988 206.279 37.42C205.919 37.852 205.619 38.392 205.379 39.04C205.163 39.664 205.055 40.408 205.055 41.272V49.804C205.055 50.428 204.851 50.956 204.443 51.388C204.035 51.796 203.519 52 202.895 52Z" fill="white"/>
</svg>
