<svg width="61" height="60" viewBox="0 0 61 60" fill="none" xmlns="http://www.w3.org/2000/svg">
<path d="M30.5 37.5C34.6421 37.5 38 34.1421 38 30C38 25.8579 34.6421 22.5 30.5 22.5C26.3579 22.5 23 25.8579 23 30C23 34.1421 26.3579 37.5 30.5 37.5Z" stroke="black" stroke-width="2" stroke-linecap="round" stroke-linejoin="round"/>
<path d="M47.3182 36.8182C47.0156 37.5037 46.9254 38.2641 47.0591 39.0013C47.1928 39.7386 47.5442 40.4189 48.0682 40.9545L48.2045 41.0909C48.6272 41.5131 48.9624 42.0144 49.1912 42.5662C49.4199 43.118 49.5377 43.7095 49.5377 44.3068C49.5377 44.9042 49.4199 45.4956 49.1912 46.0475C48.9624 46.5993 48.6272 47.1006 48.2045 47.5227C47.7824 47.9453 47.2811 48.2806 46.7293 48.5094C46.1775 48.7381 45.586 48.8558 44.9886 48.8558C44.3913 48.8558 43.7998 48.7381 43.248 48.5094C42.6962 48.2806 42.1949 47.9453 41.7727 47.5227L41.6364 47.3864C41.1007 46.8624 40.4204 46.5109 39.6832 46.3773C38.9459 46.2436 38.1855 46.3338 37.5 46.6364C36.8278 46.9245 36.2545 47.4028 35.8507 48.0126C35.4469 48.6223 35.2302 49.3368 35.2273 50.0682V50.4545C35.2273 51.6601 34.7484 52.8162 33.8959 53.6687C33.0435 54.5211 31.8873 55 30.6818 55C29.4763 55 28.3201 54.5211 27.4677 53.6687C26.6153 52.8162 26.1364 51.6601 26.1364 50.4545V50.25C26.1188 49.4977 25.8753 48.7682 25.4375 48.1561C24.9998 47.5441 24.388 47.0779 23.6818 46.8182C22.9963 46.5156 22.2359 46.4254 21.4987 46.5591C20.7614 46.6928 20.0811 47.0442 19.5455 47.5682L19.4091 47.7045C18.9869 48.1272 18.4856 48.4624 17.9338 48.6912C17.382 48.9199 16.7905 49.0377 16.1932 49.0377C15.5958 49.0377 15.0044 48.9199 14.4525 48.6912C13.9007 48.4624 13.3994 48.1272 12.9773 47.7045C12.5547 47.2824 12.2194 46.7811 11.9906 46.2293C11.7619 45.6775 11.6442 45.086 11.6442 44.4886C11.6442 43.8913 11.7619 43.2998 11.9906 42.748C12.2194 42.1962 12.5547 41.6949 12.9773 41.2727L13.1136 41.1364C13.6376 40.6007 13.9891 39.9204 14.1227 39.1832C14.2564 38.4459 14.1662 37.6855 13.8636 37C13.5755 36.3278 13.0972 35.7545 12.4874 35.3507C11.8777 34.9469 11.1632 34.7302 10.4318 34.7273H10.0455C8.83993 34.7273 7.68377 34.2484 6.83133 33.3959C5.97889 32.5435 5.5 31.3873 5.5 30.1818C5.5 28.9763 5.97889 27.8201 6.83133 26.9677C7.68377 26.1153 8.83993 25.6364 10.0455 25.6364H10.25C11.0023 25.6188 11.7318 25.3753 12.3439 24.9375C12.9559 24.4998 13.4221 23.888 13.6818 23.1818C13.9844 22.4963 14.0746 21.7359 13.9409 20.9987C13.8072 20.2614 13.4558 19.5811 12.9318 19.0455L12.7955 18.9091C12.3728 18.4869 12.0376 17.9856 11.8088 17.4338C11.5801 16.882 11.4623 16.2905 11.4623 15.6932C11.4623 15.0958 11.5801 14.5044 11.8088 13.9525C12.0376 13.4007 12.3728 12.8994 12.7955 12.4773C13.2176 12.0547 13.7189 11.7194 14.2707 11.4906C14.8225 11.2619 15.414 11.1442 16.0114 11.1442C16.6087 11.1442 17.2002 11.2619 17.752 11.4906C18.3038 11.7194 18.8051 12.0547 19.2273 12.4773L19.3636 12.6136C19.8993 13.1376 20.5796 13.4891 21.3168 13.6227C22.0541 13.7564 22.8145 13.6662 23.5 13.3636H23.6818C24.354 13.0755 24.9273 12.5972 25.3311 11.9874C25.7349 11.3777 25.9516 10.6632 25.9545 9.93182V9.54545C25.9545 8.33993 26.4334 7.18377 27.2859 6.33133C28.1383 5.47889 29.2945 5 30.5 5C31.7055 5 32.8617 5.47889 33.7141 6.33133C34.5666 7.18377 35.0455 8.33993 35.0455 9.54545V9.75C35.0484 10.4813 35.2651 11.1959 35.6689 11.8056C36.0727 12.4154 36.646 12.8937 37.3182 13.1818C38.0037 13.4844 38.7641 13.5746 39.5013 13.4409C40.2386 13.3072 40.9189 12.9558 41.4545 12.4318L41.5909 12.2955C42.0131 11.8728 42.5144 11.5376 43.0662 11.3088C43.618 11.0801 44.2095 10.9623 44.8068 10.9623C45.4042 10.9623 45.9956 11.0801 46.5475 11.3088C47.0993 11.5376 47.6006 11.8728 48.0227 12.2955C48.4453 12.7176 48.7806 13.2189 49.0094 13.7707C49.2381 14.3225 49.3558 14.914 49.3558 15.5114C49.3558 16.1087 49.2381 16.7002 49.0094 17.252C48.7806 17.8038 48.4453 18.3051 48.0227 18.7273L47.8864 18.8636C47.3624 19.3993 47.0109 20.0796 46.8773 20.8168C46.7436 21.5541 46.8338 22.3145 47.1364 23V23.1818C47.4245 23.854 47.9028 24.4273 48.5126 24.8311C49.1223 25.2349 49.8368 25.4516 50.5682 25.4545H50.9545C52.1601 25.4545 53.3162 25.9334 54.1687 26.7859C55.0211 27.6383 55.5 28.7945 55.5 30C55.5 31.2055 55.0211 32.3617 54.1687 33.2141C53.3162 34.0666 52.1601 34.5455 50.9545 34.5455H50.75C50.0187 34.5484 49.3041 34.7651 48.6944 35.1689C48.0846 35.5727 47.6063 36.146 47.3182 36.8182Z" stroke="black" stroke-width="2" stroke-linecap="round" stroke-linejoin="round"/>
</svg>
