<svg width="61" height="60" viewBox="0 0 61 60" fill="none" xmlns="http://www.w3.org/2000/svg">
<path d="M13.7907 48.596C15.3116 45.013 18.8623 42.5 23 42.5H38C42.1377 42.5 45.6884 45.013 47.2093 48.596M40.5 23.75C40.5 29.2728 36.0228 33.75 30.5 33.75C24.9772 33.75 20.5 29.2728 20.5 23.75C20.5 18.2272 24.9772 13.75 30.5 13.75C36.0228 13.75 40.5 18.2272 40.5 23.75ZM55.5 30C55.5 43.8071 44.3071 55 30.5 55C16.6929 55 5.5 43.8071 5.5 30C5.5 16.1929 16.6929 5 30.5 5C44.3071 5 55.5 16.1929 55.5 30Z" stroke="black" stroke-width="2" stroke-linecap="round" stroke-linejoin="round"/>
</svg>
